<?xml version="1.0" encoding="UTF-8"?>
<svg xmlns="http://www.w3.org/2000/svg" width="8.946" height="7.43" viewBox="0 0 8.946 7.43">
  <path id="Path_2373" data-name="Path 2373" d="M8.443,3.014l.014,0H2.471L4.353,1.131a.494.494,0,0,0,0-.695L4.06.143a.49.49,0,0,0-.691,0L.143,3.368a.493.493,0,0,0,0,.694L3.368,7.288a.49.49,0,0,0,.691,0l.293-.293A.485.485,0,0,0,4.5,6.649a.47.47,0,0,0-.143-.339l-1.9-1.9h6a.507.507,0,0,0,.5-.5V3.5A.5.5,0,0,0,8.443,3.014Z" transform="translate(8.946 7.43) rotate(180)" fill="#0b2a49"/>
</svg>
