<?xml version="1.0" encoding="UTF-8"?>
<svg xmlns="http://www.w3.org/2000/svg" xmlns:xlink="http://www.w3.org/1999/xlink" width="78" height="78" viewBox="0 0 78 78">
  <defs>
    <filter id="Subtraction_1" x="0" y="0" width="78" height="78" filterUnits="userSpaceOnUse">
      <feOffset dy="3" input="SourceAlpha"/>
      <feGaussianBlur stdDeviation="3" result="blur"/>
      <feFlood flood-opacity="0.161"/>
      <feComposite operator="in" in2="blur"/>
      <feComposite in="SourceGraphic"/>
    </filter>
  </defs>
  <g transform="matrix(1, 0, 0, 1, 0, 0)" filter="url(#Subtraction_1)">
    <path id="Subtraction_1-2" data-name="Subtraction 1" d="M4898,335a29.9,29.9,0,1,1,11.678-2.358A29.809,29.809,0,0,1,4898,335Zm.143-44.918a9.993,9.993,0,0,0-7.1,2.95,10.124,10.124,0,0,0-2.182,3.245,10.237,10.237,0,0,0-.8,4,10.667,10.667,0,0,0,.344,2.684,10.464,10.464,0,0,0,.42,1.26,10.135,10.135,0,0,0,.574,1.185l8.724,15.441,8.609-15.161a11.06,11.06,0,0,0,.627-1.238,10.833,10.833,0,0,0,.468-1.311,10.465,10.465,0,0,0,.289-1.372,10.081,10.081,0,0,0,.1-1.416,10.423,10.423,0,0,0-.782-3.985,10.232,10.232,0,0,0-2.139-3.254,9.962,9.962,0,0,0-7.1-3.024Zm.143,16.3h-.009a5.543,5.543,0,0,1-2.219-.466,5.788,5.788,0,0,1-1.824-1.262,5.926,5.926,0,0,1-1.235-6.419,5.735,5.735,0,0,1,3.06-3.078,5.618,5.618,0,0,1,2.183-.439h.036a5.693,5.693,0,0,1,4.035,1.706,5.828,5.828,0,0,1,1.23,1.854,5.958,5.958,0,0,1,.451,2.292,5.837,5.837,0,0,1-1.682,4.1,5.734,5.734,0,0,1-1.818,1.252A5.543,5.543,0,0,1,4898.286,306.381Z" transform="translate(-4859 -269)" fill="#fff"/>
  </g>
</svg>
