<?xml version="1.0" encoding="UTF-8"?>
<svg xmlns="http://www.w3.org/2000/svg" id="Group_5362" data-name="Group 5362" width="50.838" height="53.011" viewBox="0 0 50.838 53.011">
  <g id="Group_5361" data-name="Group 5361" transform="translate(0 0)">
    <path id="Path_2744" data-name="Path 2744" d="M82.914,399.42c14.83,6.24,26.094,9.876,41.961,14.875a.591.591,0,0,0,.672-.512.623.623,0,0,0-.5-.7,462.475,462.475,0,0,1-49.085-18.6.9.9,0,0,0-1.178.474.854.854,0,0,0,.467,1.139c1.107.5,2.208.986,3.271,1.447L75,400.233a1.233,1.233,0,0,0,.358,1.741,1.408,1.408,0,0,0,1.491-.013l6.061-2.541Z" transform="translate(-74.717 -363.035)" fill="#fff"></path>
    <path id="Path_2745" data-name="Path 2745" d="M445.6,126.152a4.237,4.237,0,1,0-4.237-4.237,4.231,4.231,0,0,0,4.237,4.237" transform="translate(-404.434 -114.172)" fill="#fff"></path>
    <path id="Path_2746" data-name="Path 2746" d="M191.946,104.717l9-4.423,8.352,7.687a2.05,2.05,0,0,0,1.434.589,2.028,2.028,0,0,0,2.016-2.035,2.053,2.053,0,0,0-.691-1.517L200.119,94.054a4.677,4.677,0,0,0-1.376-.922l-9.287-3.315L185.232,83.7a2.059,2.059,0,0,0-1.414-.826,2.028,2.028,0,0,0-1.946,3.079l4.307,6.247a2.1,2.1,0,0,0,.755.6l5,1.965-8.212,4.2a4.432,4.432,0,0,0-2.189,3.136l.038,7.514-7.6,3.424a2.643,2.643,0,0,0-1.5,2.279,2.609,2.609,0,0,0,2.509,2.72,2.484,2.484,0,0,0,1.267-.262l9.293-4.2a2.618,2.618,0,0,0,1.325-1.76l-.013-4.679,6.452,5.78-1.19,9.837c0,.058-.013.122-.013.186a2.627,2.627,0,0,0,5.229.461l1.383-11.227c0-.045.013-.1.013-.147a2.644,2.644,0,0,0-.813-2l-5.972-5.312Z" transform="translate(-162.627 -82.866)" fill="#fff"></path>
  </g>
  <circle id="Ellipse_120" data-name="Ellipse 120" cx="1.831" cy="1.831" r="1.831" transform="translate(8.797 37.26)" fill="#fff"></circle>
  <circle id="Ellipse_121" data-name="Ellipse 121" cx="1.866" cy="1.866" r="1.866" transform="translate(39.802 49.279)" fill="#fff"></circle>
</svg>
