<?xml version="1.0" encoding="UTF-8"?>
<svg xmlns="http://www.w3.org/2000/svg" id="Group_5359" data-name="Group 5359" width="38.725" height="53.142" viewBox="0 0 38.725 53.142">
  <g id="Group_5358" data-name="Group 5358" transform="translate(0 0)">
    <path id="Path_2736" data-name="Path 2736" d="M48.863,112.085a1.544,1.544,0,1,0-1.542-1.546A1.545,1.545,0,0,0,48.863,112.085Z" transform="translate(-36.12 -58.943)" fill="#fff"></path>
    <path id="Path_2737" data-name="Path 2737" d="M74.038,112a1.556,1.556,0,1,0-1.538-1.561A1.554,1.554,0,0,0,74.038,112Z" transform="translate(-48.812 -58.887)" fill="#fff"></path>
    <path id="Path_2738" data-name="Path 2738" d="M43.36,103.861a.953.953,0,0,1-.907-.98V102.8a.967.967,0,0,1,.907-.98H61.88a.992.992,0,0,1,.911.98v.085a.992.992,0,0,1-.911.98Z" transform="translate(-33.666 -55.322)" fill="#fff"></path>
    <path id="Path_2739" data-name="Path 2739" d="M66.057,16.265a4.1,4.1,0,1,0-4.1-4.107A4.108,4.108,0,0,0,66.057,16.265Z" transform="translate(-43.496 -8.067)" fill="#fff"></path>
    <path id="Path_2740" data-name="Path 2740" d="M25.037,79.89a2.573,2.573,0,0,0-.3,1.22,2.628,2.628,0,0,0,4.991,1.139L38.68,66.86,34.96,63.144Z" transform="translate(-24.735 -35.83)" fill="#fff"></path>
    <path id="Path_2741" data-name="Path 2741" d="M46.042,60.569a2.618,2.618,0,0,1-4.975-1.139,2.586,2.586,0,0,1,.3-1.224l3.9-6.85-7.6-7.556a4.882,4.882,0,0,1-.837-6.1l4.091-7.23-10.852.011a2.148,2.148,0,1,1,0-4.3H62.919a2.148,2.148,0,0,1,0,4.3H50.386L44.407,40.953l6.087,6.017a3.542,3.542,0,0,1,.752,4.347Z" transform="translate(-26.337 -17.199)" fill="#fff"></path>
  </g>
</svg>
