<?xml version="1.0" encoding="UTF-8"?>
<svg xmlns="http://www.w3.org/2000/svg" xmlns:xlink="http://www.w3.org/1999/xlink" id="Grupo_5940" data-name="Grupo 5940" width="618.393" height="74.672" viewBox="0 0 618.393 74.672">
  <defs>
    <clipPath id="clip-path">
      <rect id="Retângulo_2468" data-name="Retângulo 2468" width="618.393" height="74.672"></rect>
    </clipPath>
    <clipPath id="clip-path-2">
      <rect id="Retângulo_2469" data-name="Retângulo 2469" width="87.577" height="18.495"></rect>
    </clipPath>
  </defs>
  <g id="Grupo_5455" data-name="Grupo 5455">
    <g id="Grupo_5454" data-name="Grupo 5454" clip-path="url(#clip-path)">
      <path id="Caminho_2738" data-name="Caminho 2738" d="M960.99,138.724a4.139,4.139,0,0,1-.049.65,2.482,2.482,0,0,1-.17.591,1.793,1.793,0,0,1-.307.492,1.325,1.325,0,0,1-.477.33,1.846,1.846,0,0,1-1.327,0,1.325,1.325,0,0,1-.475-.324,1.732,1.732,0,0,1-.309-.487,2.508,2.508,0,0,1-.175-.6,4.085,4.085,0,0,1-.049-.658v-3.1h-.969v3.1a4.7,4.7,0,0,0,.086.927,3.277,3.277,0,0,0,.284.833,2.374,2.374,0,0,0,.5.681,2.174,2.174,0,0,0,.751.45,2.913,2.913,0,0,0,1.022.168,2.842,2.842,0,0,0,1.2-.24,2.069,2.069,0,0,0,.827-.667,3.016,3.016,0,0,0,.461-.967,4.377,4.377,0,0,0,.151-1.184v-3.1h-.976Zm8.238,1.321-3.466-4.421h-.791v6.116h.963v-4.323l3.42,4.323h.845v-6.107h-.973Zm4.069,1.695h.963v-6.115H973.3Zm5.832-6.115-2.4,6.115h1.026l.639-1.661h2.359l.644,1.661h1.018l-2.376-6.115Zm-.559,3.739,1.014-2.679.984,2.679Zm.038-4.553a.75.75,0,0,1,.049-.135.328.328,0,0,1,.13-.139.432.432,0,0,1,.227-.056.675.675,0,0,1,.322.092q.17.093.372.185a1.01,1.01,0,0,0,.425.093.863.863,0,0,0,.394-.091.884.884,0,0,0,.283-.216,1.409,1.409,0,0,0,.179-.273,1.352,1.352,0,0,0,.1-.252.664.664,0,0,0,.027-.16h-.542a.328.328,0,0,1-.006.059.466.466,0,0,1-.036.1.461.461,0,0,1-.078.12.406.406,0,0,1-.139.1.487.487,0,0,1-.208.042.735.735,0,0,1-.349-.1c-.118-.063-.241-.126-.37-.189a.925.925,0,0,0-.408-.094.787.787,0,0,0-.368.086.813.813,0,0,0-.265.21,1.436,1.436,0,0,0-.168.27,1.292,1.292,0,0,0-.1.254.785.785,0,0,0-.025.172h.535a.385.385,0,0,1,.013-.082m10.733,1.752a2.786,2.786,0,0,0-.927-.709,2.7,2.7,0,0,0-1.19-.269,2.743,2.743,0,0,0-1.168.256,2.919,2.919,0,0,0-.938.681,3.227,3.227,0,0,0-.612.99,3.14,3.14,0,0,0-.225,1.172,3.229,3.229,0,0,0,.135.924,3.117,3.117,0,0,0,.393.848,3.234,3.234,0,0,0,.61.69,2.666,2.666,0,0,0,.813.469,2.807,2.807,0,0,0,.976.17,2.748,2.748,0,0,0,1.168-.254,2.849,2.849,0,0,0,.934-.681,3.274,3.274,0,0,0,.608-.989,3.122,3.122,0,0,0,.011-2.3,3.444,3.444,0,0,0-.587-1m-.32,2.933a2.494,2.494,0,0,1-.372.713,1.792,1.792,0,0,1-1.434.7,1.75,1.75,0,0,1-1.035-.32,2.035,2.035,0,0,1-.687-.824,2.553,2.553,0,0,1-.234-1.085,2.519,2.519,0,0,1,.135-.812,2.453,2.453,0,0,1,.379-.711,1.818,1.818,0,0,1,1.443-.7,1.774,1.774,0,0,1,.8.182,1.8,1.8,0,0,1,.614.492,2.45,2.45,0,0,1,.387.711,2.516,2.516,0,0,1,.141.835,2.557,2.557,0,0,1-.132.812m8.646-.475h2.73v-.8h-2.73v-1.737h3.155v-.853H996.7v6.116h4.193v-.853h-3.23Zm14.015-.28a2.007,2.007,0,0,0,.328-1.125,1.93,1.93,0,0,0-.143-.723,2.243,2.243,0,0,0-.389-.639,1.831,1.831,0,0,0-.6-.454,1.731,1.731,0,0,0-.759-.173h-2.662v6.117h.963v-2.128h1.422l1.329,2.128h1.085l-1.439-2.326a1.593,1.593,0,0,0,.866-.675m-1.573.019h-1.691v-2.279h1.636a.887.887,0,0,1,.681.334,1.172,1.172,0,0,1,.292.8,1.278,1.278,0,0,1-.261.81.8.8,0,0,1-.66.334m5.722.261h2.73v-.8h-2.73v-1.737h3.155v-.854h-4.118v6.116h4.194v-.853h-3.231Zm9.591,1.469a1.76,1.76,0,0,1-.58.333,1.966,1.966,0,0,1-.616.1,1.757,1.757,0,0,1-1.013-.313,2.09,2.09,0,0,1-.708-.827,2.486,2.486,0,0,1-.25-1.106,2.674,2.674,0,0,1,.078-.639,2.319,2.319,0,0,1,.243-.6,2.165,2.165,0,0,1,.389-.5,1.72,1.72,0,0,1,.547-.343,1.837,1.837,0,0,1,.69-.128,1.974,1.974,0,0,1,.891.208,1.406,1.406,0,0,1,.4.3,1.686,1.686,0,0,1,.307.46l.757-.508a2.356,2.356,0,0,0-.915-.97,2.694,2.694,0,0,0-1.411-.364,2.958,2.958,0,0,0-1.022.175,2.649,2.649,0,0,0-.827.473,3.219,3.219,0,0,0-.6.688,3.053,3.053,0,0,0-.381.827,3.209,3.209,0,0,0-.126.885,3.159,3.159,0,0,0,.219,1.146,3.533,3.533,0,0,0,.595,1.012,2.85,2.85,0,0,0,.93.719,2.619,2.619,0,0,0,1.175.273,3.136,3.136,0,0,0,.98-.16,2.788,2.788,0,0,0,.9-.492,1.951,1.951,0,0,0,.589-.769l-.8-.454a1.564,1.564,0,0,1-.431.574m8.446-3.928a2.792,2.792,0,0,0-.927-.709,2.692,2.692,0,0,0-1.191-.269,2.742,2.742,0,0,0-1.168.256,2.917,2.917,0,0,0-.938.681,3.224,3.224,0,0,0-.612.99,3.142,3.142,0,0,0-.225,1.172,3.232,3.232,0,0,0,.135.924,3.106,3.106,0,0,0,.393.848,3.22,3.22,0,0,0,.61.69,2.664,2.664,0,0,0,.814.469,2.8,2.8,0,0,0,.976.17,2.758,2.758,0,0,0,1.168-.254,2.854,2.854,0,0,0,.934-.681,3.3,3.3,0,0,0,.607-.989,3.126,3.126,0,0,0,.011-2.3,3.455,3.455,0,0,0-.587-1m-.32,2.933a2.491,2.491,0,0,1-.372.713,1.793,1.793,0,0,1-1.434.7,1.751,1.751,0,0,1-1.035-.32,2.037,2.037,0,0,1-.687-.824,2.546,2.546,0,0,1-.234-1.085,2.509,2.509,0,0,1,.135-.812,2.45,2.45,0,0,1,.379-.711,1.818,1.818,0,0,1,1.443-.7,1.774,1.774,0,0,1,.8.182,1.805,1.805,0,0,1,.615.492,2.444,2.444,0,0,1,.387.711,2.5,2.5,0,0,1,.141.835,2.552,2.552,0,0,1-.132.812m8.1.551-3.466-4.421h-.791v6.12h.963v-4.323l3.42,4.323h.845v-6.107h-.973Zm8.019-1.022a1.588,1.588,0,0,0-.425-.324,3.354,3.354,0,0,0-.551-.24q-.286-.1-.69-.192l-.408-.1c-.1-.027-.215-.059-.335-.1a2.079,2.079,0,0,1-.282-.108,1.616,1.616,0,0,1-.208-.122.581.581,0,0,1-.158-.149.735.735,0,0,1-.086-.179.706.706,0,0,1-.034-.227.733.733,0,0,1,.3-.625,1.493,1.493,0,0,1,.894-.221,2.492,2.492,0,0,1,.98.2,1.934,1.934,0,0,1,.673.421l.438-.791a3.4,3.4,0,0,0-2.065-.689,3.023,3.023,0,0,0-.879.122,2.134,2.134,0,0,0-.7.353,1.615,1.615,0,0,0-.469.584,1.832,1.832,0,0,0-.17.8,1.56,1.56,0,0,0,.11.612,1.116,1.116,0,0,0,.351.448,2.366,2.366,0,0,0,.557.32,6.149,6.149,0,0,0,.8.256c.208.053.373.1.495.13s.256.076.4.127a1.912,1.912,0,0,1,.341.146,1.713,1.713,0,0,1,.234.17.561.561,0,0,1,.16.221.764.764,0,0,1,.046.273.652.652,0,0,1-.309.58,1.606,1.606,0,0,1-.881.2,3.123,3.123,0,0,1-1.234-.254,2.665,2.665,0,0,1-.865-.528l-.441.827a3.879,3.879,0,0,0,1.173.612,4.327,4.327,0,0,0,1.351.212,3.861,3.861,0,0,0,.706-.061,2.452,2.452,0,0,0,.614-.2,1.753,1.753,0,0,0,.487-.341,1.447,1.447,0,0,0,.317-.5,1.8,1.8,0,0,0,.116-.66,1.68,1.68,0,0,0-.1-.584,1.338,1.338,0,0,0-.255-.435m2.475-2.547h2.04v5.274h.976v-5.262h2.031v-.854h-5.047Zm11.813,2.26a2.012,2.012,0,0,0,.328-1.125,1.931,1.931,0,0,0-.142-.723,2.263,2.263,0,0,0-.389-.639,1.824,1.824,0,0,0-.6-.454,1.731,1.731,0,0,0-.759-.173h-2.65v6.128h.963v-2.128h1.422l1.329,2.128h1.085l-1.438-2.326a1.593,1.593,0,0,0,.866-.675m-1.573.019h-1.691v-2.279h1.636a.884.884,0,0,1,.681.334,1.172,1.172,0,0,1,.292.8,1.28,1.28,0,0,1-.261.81.8.8,0,0,1-.66.334m8.969-.034a4.1,4.1,0,0,1-.049.65,2.5,2.5,0,0,1-.17.591,1.76,1.76,0,0,1-.307.492,1.329,1.329,0,0,1-.477.33,1.85,1.85,0,0,1-1.327,0,1.329,1.329,0,0,1-.475-.324,1.729,1.729,0,0,1-.309-.487,2.491,2.491,0,0,1-.175-.6,4.114,4.114,0,0,1-.049-.658v-3.1h-.967v3.1a4.765,4.765,0,0,0,.086.927,3.291,3.291,0,0,0,.284.833,2.371,2.371,0,0,0,.5.681,2.173,2.173,0,0,0,.751.45,2.908,2.908,0,0,0,1.022.168,2.843,2.843,0,0,0,1.2-.24,2.072,2.072,0,0,0,.827-.667,3.02,3.02,0,0,0,.46-.967,4.391,4.391,0,0,0,.151-1.184v-3.1h-.976Zm7.744,1.764a1.761,1.761,0,0,1-.581.333,1.961,1.961,0,0,1-.616.1,1.759,1.759,0,0,1-1.014-.313,2.1,2.1,0,0,1-.709-.827,2.492,2.492,0,0,1-.25-1.106,2.674,2.674,0,0,1,.078-.639,2.323,2.323,0,0,1,.243-.6,2.159,2.159,0,0,1,.389-.5,1.719,1.719,0,0,1,.547-.343,1.836,1.836,0,0,1,.69-.128,1.975,1.975,0,0,1,.891.208,1.408,1.408,0,0,1,.4.3,1.692,1.692,0,0,1,.307.46l.757-.508a2.355,2.355,0,0,0-.915-.97,2.693,2.693,0,0,0-1.411-.364,2.959,2.959,0,0,0-1.022.175,2.657,2.657,0,0,0-.827.473,3.208,3.208,0,0,0-.6.688,3.045,3.045,0,0,0-.38.827,3.2,3.2,0,0,0-.126.885,3.161,3.161,0,0,0,.2,1.1,3.467,3.467,0,0,0,.549.98,2.95,2.95,0,0,0,.86.73,2.618,2.618,0,0,0,1.1.336q.463.3.463.639a.353.353,0,0,1-.137.3.62.62,0,0,1-.38.1,1.274,1.274,0,0,1-.609-.181l-.24.509a2.194,2.194,0,0,0,1.014.248,1.012,1.012,0,0,0,.694-.218.746.746,0,0,0,.249-.589,1.07,1.07,0,0,0-.442-.827,3.114,3.114,0,0,0,1.257-.465,2.029,2.029,0,0,0,.812-.931l-.8-.454a1.563,1.563,0,0,1-.431.574m5.529-4.865-2.4,6.115h1.026l.639-1.661h2.36l.643,1.661h1.018l-2.377-6.115Zm-.559,3.739,1.013-2.679.984,2.679Zm.037-4.553a.8.8,0,0,1,.049-.135.325.325,0,0,1,.13-.139.432.432,0,0,1,.227-.056.674.674,0,0,1,.322.092c.114.062.238.124.372.185a1.017,1.017,0,0,0,.425.093.862.862,0,0,0,.394-.09.886.886,0,0,0,.284-.217,1.409,1.409,0,0,0,.178-.273,1.365,1.365,0,0,0,.1-.253.662.662,0,0,0,.027-.16h-.543a.333.333,0,0,1-.006.059.467.467,0,0,1-.035.1.49.49,0,0,1-.078.12.413.413,0,0,1-.138.1.488.488,0,0,1-.209.042.74.74,0,0,1-.349-.1c-.117-.063-.241-.126-.37-.189a.918.918,0,0,0-.408-.094.788.788,0,0,0-.368.086.811.811,0,0,0-.265.21,1.445,1.445,0,0,0-.168.27,1.278,1.278,0,0,0-.1.254.844.844,0,0,0-.025.172h.535a.41.41,0,0,1,.013-.082m11.32,2.746a3.433,3.433,0,0,0-.587-1,2.785,2.785,0,0,0-.927-.709,2.7,2.7,0,0,0-1.191-.269,2.743,2.743,0,0,0-1.168.256,2.919,2.919,0,0,0-.938.681,3.222,3.222,0,0,0-.612.99,3.146,3.146,0,0,0-.225,1.172,3.253,3.253,0,0,0,.134.924,3.119,3.119,0,0,0,.394.848,3.236,3.236,0,0,0,.609.69,2.682,2.682,0,0,0,.814.469,2.807,2.807,0,0,0,.976.17,2.756,2.756,0,0,0,1.168-.254,2.841,2.841,0,0,0,.934-.681,3.282,3.282,0,0,0,.608-.989,3.132,3.132,0,0,0,.01-2.3m-.906,1.937a2.5,2.5,0,0,1-.372.713,1.784,1.784,0,0,1-.615.511,1.833,1.833,0,0,1-1.854-.126,2.035,2.035,0,0,1-.687-.824,2.551,2.551,0,0,1-.234-1.085,2.5,2.5,0,0,1,.135-.812,2.456,2.456,0,0,1,.379-.711,1.819,1.819,0,0,1,1.443-.7,1.768,1.768,0,0,1,.8.182,1.8,1.8,0,0,1,.614.492,2.438,2.438,0,0,1,.389.711,2.517,2.517,0,0,1,.141.835,2.559,2.559,0,0,1-.132.812" transform="translate(-491.221 -68.731)"></path>
      <path id="Caminho_2739" data-name="Caminho 2739" d="M959.96,5.2h2.1a1.524,1.524,0,0,1-1.535.917,1.924,1.924,0,0,1-1.993-1.853c0-.054,0-.108,0-.163a1.951,1.951,0,0,1,1.825-2.069c.044,0,.089,0,.133,0A1.9,1.9,0,0,1,962.193,3l1.786-1.065a4.077,4.077,0,1,0-3.459,6.219A3.733,3.733,0,0,0,964.3,4.146V3.539h-4.34ZM971.273,0a4.077,4.077,0,1,0,4.066,4.089V4.078A4.06,4.06,0,0,0,971.3,0h-.023m0,6a1.928,1.928,0,1,1,1.806-2.042c0,.04,0,.079,0,.119A1.849,1.849,0,0,1,971.311,6h-.037m10.112-1.019-1.809-4.8H977.32l3.012,7.788h2.1L985.474.184h-2.258Zm6.824,2.989h5.577V6.07h-3.47V4.913h2.291V3.24h-2.291V2.083h3.47V.182H988.21Zm15.277-5.255a2.564,2.564,0,0,0-2.595-2.533l-.1,0h-3.768V7.975H999.1V5.284h.882l1.546,2.692h2.325l-1.729-3a2.51,2.51,0,0,0,1.362-2.256m-2.919.79H999.1V2.054h1.466a.73.73,0,0,1,.125,1.454.767.767,0,0,1-.125,0m11.085.79L1008.5.187h-1.763V7.975h2.073v-4.1l3.138,4.1h1.775V.184h-2.073ZM1020.837,0a4.077,4.077,0,1,0,4.065,4.089V4.081A4.06,4.06,0,0,0,1020.86,0h-.023m0,6a1.928,1.928,0,1,1,1.806-2.042c0,.04,0,.079,0,.119A1.849,1.849,0,0,1,1020.874,6h-.037m12.241,1.97h2.108V5.135h2.29V3.371h-2.29V2.054h3.47V.187h-5.579Zm8.726,0h5.578v-1.9h-3.47V4.916h2.29V3.24h-2.29V2.083h3.47V.182H1041.8Zm11.99-7.788h-3.172V7.975h3.172a3.935,3.935,0,0,0,4.157-3.892A3.935,3.935,0,0,0,1053.794.19m-.1,5.761h-.95V2.217h.95a1.878,1.878,0,1,1,0,3.734m7.283,2.027h5.577v-1.9h-3.47V4.92h2.291V3.24h-2.291V2.083h3.47V.182h-5.577Zm15.278-5.255a2.564,2.564,0,0,0-2.595-2.533l-.1,0h-3.768V7.981h2.073V5.29h.882l1.546,2.692h2.324l-1.729-3a2.513,2.513,0,0,0,1.362-2.256m-2.919.79h-1.468V2.06h1.466a.73.73,0,1,1,.125,1.454.761.761,0,0,1-.125,0M1082.17.194l-3.253,7.788h2.189l.539-1.34h3.08l.55,1.34h2.176L1084.164.194Zm.229,4.592.778-1.913.778,1.913Zm10,1.179V.184h-2.21V7.972h5.486V5.965Z" transform="translate(-491.093 0)"></path>
      <path id="Caminho_2740" data-name="Caminho 2740" d="M1019.356,63.092l6.942,11.672h5.737V52.7h-12.679Zm17.728-13.7h-4.321V74.763h4.321a12.686,12.686,0,0,0,0-25.373m-8.98,2.586h3.931v-17.5h-3.928a8.75,8.75,0,0,0,0,17.5M958.772,35.34V58.52h15.06Zm108.3,25.647h13.454V34.476h-13.452Zm-19.695-26.511h-14.615V48.663h14.615Zm33.876,40.285h13.454V61.713h-13.454Zm-14.182,0h13.454V61.713H1067.07Zm-16.574,0h13.454V34.476H1050.5Zm-31.142,0h6.1l-6.1-10.248ZM952.615,42.338a7.873,7.873,0,0,0-7.864-7.864h-2.919V50.2h2.919a7.873,7.873,0,0,0,7.864-7.864M927.649,50.2H941.1V34.476H927.649Zm0,24.558H941.1V50.931H927.649Zm18.48-23.831h-4.3V74.761h4.3a11.915,11.915,0,0,0,0-23.831m34.9,18.647-3.083,5.184H984.4Zm.415-.7,3.824,5.883h1.109a15.326,15.326,0,0,1,30.642,0h1.61V63.292L1001.7,34.824ZM986.525,46.5A12.035,12.035,0,0,0,974.5,34.475H959.08L974.7,58.518A12.066,12.066,0,0,0,986.523,46.5m15.171,14.03a14.617,14.617,0,0,0-14.6,14.235h29.189a14.617,14.617,0,0,0-14.6-14.235M974.3,59.247H958.774V74.763H977.1l3.488-5.864Z" transform="translate(-476.314 -17.701)"></path>
      <path id="Caminho_2741" data-name="Caminho 2741" d="M656.749,59.082V53.439l-2.332,4.282h-.736l-2.343-4.282v5.644h-1.247V51.16h1.34L654.052,56l2.62-4.844h1.34v7.922Z" transform="translate(-333.798 -26.269)"></path>
      <rect id="Retângulo_2463" data-name="Retângulo 2463" width="1.248" height="7.922" transform="translate(328.229 24.891)"></rect>
      <path id="Caminho_2742" data-name="Caminho 2742" d="M686.694,53.481v5.6h-1.248V51.16h1.025l4.489,5.726V51.171h1.259v7.911h-1.1Z" transform="translate(-351.952 -26.269)"></path>
      <rect id="Retângulo_2464" data-name="Retângulo 2464" width="1.247" height="7.922" transform="translate(344.281 24.891)"></rect>
      <path id="Caminho_2743" data-name="Caminho 2743" d="M722.484,52.966a2.5,2.5,0,0,0-.872-.545,3.226,3.226,0,0,0-1.269-.262,1.933,1.933,0,0,0-1.158.286.951.951,0,0,0-.384.809.923.923,0,0,0,.155.526.741.741,0,0,0,.2.195,2.222,2.222,0,0,0,.27.158,2.715,2.715,0,0,0,.365.139c.154.049.3.091.433.125l.528.134q.523.126.894.248a4.272,4.272,0,0,1,.714.311,2.049,2.049,0,0,1,.55.419,1.744,1.744,0,0,1,.329.564,2.181,2.181,0,0,1,.123.757,2.336,2.336,0,0,1-.149.856,1.866,1.866,0,0,1-.412.643,2.272,2.272,0,0,1-.632.438,3.174,3.174,0,0,1-.8.256,5.02,5.02,0,0,1-.915.079,5.608,5.608,0,0,1-1.752-.275,5.051,5.051,0,0,1-1.52-.793l.572-1.074a3.453,3.453,0,0,0,1.119.684,4.062,4.062,0,0,0,1.6.329,2.087,2.087,0,0,0,1.142-.261.845.845,0,0,0,.4-.752,1,1,0,0,0-.06-.354.709.709,0,0,0-.207-.286,2.042,2.042,0,0,0-.3-.221,2.411,2.411,0,0,0-.441-.191c-.191-.066-.365-.12-.523-.163s-.371-.1-.64-.169a8.14,8.14,0,0,1-1.035-.332,3.051,3.051,0,0,1-.722-.414,1.449,1.449,0,0,1-.455-.58,2.016,2.016,0,0,1-.142-.793,2.356,2.356,0,0,1,.221-1.033,2.094,2.094,0,0,1,.608-.759,2.763,2.763,0,0,1,.91-.458,3.92,3.92,0,0,1,1.138-.158,4.412,4.412,0,0,1,2.676.894Z" transform="translate(-368.251 -26.211)"></path>
      <path id="Caminho_2744" data-name="Caminho 2744" d="M742.082,52.266h-2.631v6.816h-1.265V52.266h-2.642V51.16h6.539Z" transform="translate(-377.675 -26.269)"></path>
      <path id="Caminho_2745" data-name="Caminho 2745" d="M761.176,55.564V56.67h-5.432V48.747h5.334v1.106h-4.087V52.1h3.536v1.041h-3.536v2.42Zm-2.218-7.634-.806-.243.637-1.226h1.172Z" transform="translate(-388.047 -23.856)"></path>
      <path id="Caminho_2746" data-name="Caminho 2746" d="M774.127,59.082V51.16h3.449a2.247,2.247,0,0,1,.983.223,2.383,2.383,0,0,1,.781.588,2.909,2.909,0,0,1,.5.827,2.508,2.508,0,0,1,.185.937,2.61,2.61,0,0,1-.425,1.46,2.069,2.069,0,0,1-1.122.876l1.863,3.013h-1.405l-1.721-2.757h-1.842v2.757Zm1.247-3.863h2.189a1.042,1.042,0,0,0,.856-.433,1.653,1.653,0,0,0,.338-1.049,1.516,1.516,0,0,0-.381-1.038,1.15,1.15,0,0,0-.883-.434h-2.119Z" transform="translate(-397.486 -26.269)"></path>
      <rect id="Retângulo_2465" data-name="Retângulo 2465" width="1.247" height="7.922" transform="translate(386.245 24.891)"></rect>
      <path id="Caminho_2747" data-name="Caminho 2747" d="M803.659,55.063a4.064,4.064,0,0,1,.292-1.517,4.179,4.179,0,0,1,.793-1.283,3.777,3.777,0,0,1,1.216-.883,3.55,3.55,0,0,1,1.515-.332,3.48,3.48,0,0,1,1.541.349,3.616,3.616,0,0,1,1.2.918,4.475,4.475,0,0,1,.76,1.291,4.052,4.052,0,0,1-.014,2.983,4.228,4.228,0,0,1-.787,1.28,3.675,3.675,0,0,1-1.21.88,3.569,3.569,0,0,1-1.515.33,3.619,3.619,0,0,1-1.265-.221,3.459,3.459,0,0,1-1.054-.608,4.2,4.2,0,0,1-.79-.893,4.071,4.071,0,0,1-.51-1.1,4.218,4.218,0,0,1-.175-1.2m3.8,2.888a2.278,2.278,0,0,0,1.063-.251,2.311,2.311,0,0,0,.8-.662,3.223,3.223,0,0,0,.482-.924,3.285,3.285,0,0,0,.172-1.051,3.233,3.233,0,0,0-.183-1.081,3.111,3.111,0,0,0-.5-.921,2.319,2.319,0,0,0-.8-.638,2.288,2.288,0,0,0-1.032-.236,2.354,2.354,0,0,0-1.869.9,3.142,3.142,0,0,0-.49.921,3.226,3.226,0,0,0-.175,1.051,3.307,3.307,0,0,0,.3,1.406,2.638,2.638,0,0,0,.89,1.07,2.269,2.269,0,0,0,1.34.412" transform="translate(-412.649 -26.211)"></path>
      <path id="Caminho_2748" data-name="Caminho 2748" d="M836.765,59.082V51.159h2.812a4.35,4.35,0,0,1,1.676.308,3.226,3.226,0,0,1,1.216.85,3.783,3.783,0,0,1,.723,1.253,4.67,4.67,0,0,1,.248,1.539,3.969,3.969,0,0,1-1.054,2.885,3.736,3.736,0,0,1-2.809,1.087Zm2.812-6.816h-1.564v5.71h1.564a2.551,2.551,0,0,0,1.408-.379,2.346,2.346,0,0,0,.886-1.022,3.491,3.491,0,0,0,.292-1.465,3.009,3.009,0,0,0-.689-2.057A2.393,2.393,0,0,0,839.577,52.265Z" transform="translate(-429.648 -26.268)"></path>
      <path id="Caminho_2749" data-name="Caminho 2749" d="M856.739,55.063a4.071,4.071,0,0,1,.292-1.517,4.177,4.177,0,0,1,.793-1.283,3.781,3.781,0,0,1,1.216-.883,3.543,3.543,0,0,1,1.515-.332,3.489,3.489,0,0,1,1.542.349,3.614,3.614,0,0,1,1.2.918,4.459,4.459,0,0,1,.76,1.291,4.054,4.054,0,0,1-.014,2.983,4.223,4.223,0,0,1-.787,1.28,3.683,3.683,0,0,1-1.209.88,3.565,3.565,0,0,1-1.515.33,3.62,3.62,0,0,1-1.265-.221,3.457,3.457,0,0,1-1.054-.608,4.222,4.222,0,0,1-.791-.893,4.056,4.056,0,0,1-.509-1.1,4.188,4.188,0,0,1-.176-1.2m3.8,2.888A2.278,2.278,0,0,0,861.6,57.7a2.315,2.315,0,0,0,.8-.662,3.239,3.239,0,0,0,.482-.924,3.3,3.3,0,0,0,.171-1.051,3.247,3.247,0,0,0-.182-1.081,3.148,3.148,0,0,0-.5-.921,2.32,2.32,0,0,0-.8-.638,2.288,2.288,0,0,0-1.032-.236,2.353,2.353,0,0,0-1.868.9,3.15,3.15,0,0,0-.49.921,3.219,3.219,0,0,0-.175,1.051,3.3,3.3,0,0,0,.3,1.406,2.634,2.634,0,0,0,.891,1.07A2.271,2.271,0,0,0,860.542,57.951Z" transform="translate(-439.904 -26.211)"></path>
      <path id="Caminho_2750" data-name="Caminho 2750" d="M748.964,90.21v1.905h-5.673V84.153h5.575v1.906h-3.39v1.122h2.9V88.95h-2.9v1.26Z" transform="translate(-381.653 -43.21)"></path>
      <path id="Caminho_2751" data-name="Caminho 2751" d="M765.892,86.688c-.033-.018-.077-.043-.132-.076s-.166-.091-.334-.175-.332-.158-.493-.222a4.38,4.38,0,0,0-.561-.175,2.483,2.483,0,0,0-.589-.08q-.64,0-.64.395a.4.4,0,0,0,.03.159.337.337,0,0,0,.108.132,1.33,1.33,0,0,0,.151.1,1.313,1.313,0,0,0,.227.1c.1.036.19.066.263.088l.334.1.367.112a7.742,7.742,0,0,1,.818.292,4.251,4.251,0,0,1,.654.347,2.043,2.043,0,0,1,.509.452,1.914,1.914,0,0,1,.3.594,2.545,2.545,0,0,1,.112.786,2.682,2.682,0,0,1-.176,1,2.062,2.062,0,0,1-.463.725,2.444,2.444,0,0,1-.687.468,3.334,3.334,0,0,1-.818.263,4.858,4.858,0,0,1-.884.077,6.885,6.885,0,0,1-1.8-.254,6.74,6.74,0,0,1-1.66-.676l.942-1.917c.037.026.087.057.152.1s.194.108.394.208.4.189.588.266a5.147,5.147,0,0,0,.688.211,3.136,3.136,0,0,0,.736.1q.636,0,.636-.35a.365.365,0,0,0-.082-.233.734.734,0,0,0-.274-.186,3.914,3.914,0,0,0-.37-.143c-.119-.038-.287-.09-.5-.153s-.4-.12-.54-.167a3.744,3.744,0,0,1-1.547-.867,1.919,1.919,0,0,1-.473-1.366,2.7,2.7,0,0,1,.243-1.161,2.317,2.317,0,0,1,.656-.849,3.043,3.043,0,0,1,.945-.5,3.564,3.564,0,0,1,1.128-.176,6.848,6.848,0,0,1,2.985.86Z" transform="translate(-390.505 -43.143)"></path>
      <path id="Caminho_2752" data-name="Caminho 2752" d="M780.435,92.115V84.153h3.433a2.482,2.482,0,0,1,1.073.241,2.634,2.634,0,0,1,.854.63,3.084,3.084,0,0,1,.547.885,2.627,2.627,0,0,1,.2,1,2.841,2.841,0,0,1-.192,1.03,2.891,2.891,0,0,1-.529.882,2.55,2.55,0,0,1-1.9.849h-1.3v2.442Zm2.185-4.353h1.156a.486.486,0,0,0,.389-.2,1.038,1.038,0,0,0,.162-.646.952.952,0,0,0-.184-.651.557.557,0,0,0-.425-.2h-1.1Z" transform="translate(-400.725 -43.209)"></path>
      <path id="Caminho_2753" data-name="Caminho 2753" d="M798.472,88.077a3.878,3.878,0,0,1,.307-1.515,4.163,4.163,0,0,1,.838-1.284,3.951,3.951,0,0,1,1.3-.885,4.051,4.051,0,0,1,1.629-.331,3.927,3.927,0,0,1,1.643.348,3.8,3.8,0,0,1,1.278.92,4.385,4.385,0,0,1,.805,1.3,3.961,3.961,0,0,1,.292,1.489,3.877,3.877,0,0,1-.3,1.508,4.19,4.19,0,0,1-.833,1.284,3.919,3.919,0,0,1-1.3.89,4.032,4.032,0,0,1-1.632.334,3.94,3.94,0,0,1-1.64-.345,3.822,3.822,0,0,1-1.279-.915,4.36,4.36,0,0,1-.81-1.3,3.961,3.961,0,0,1-.295-1.5m4.047,2.119a1.758,1.758,0,0,0,.813-.183,1.53,1.53,0,0,0,.572-.49,2.349,2.349,0,0,0,.323-.674,2.674,2.674,0,0,0,.109-.772,2.593,2.593,0,0,0-.195-1.019,1.749,1.749,0,0,0-.619-.759,1.721,1.721,0,0,0-1.016-.3,1.757,1.757,0,0,0-.81.181,1.535,1.535,0,0,0-.57.482,2.242,2.242,0,0,0-.323.668,2.652,2.652,0,0,0-.11.767,2.684,2.684,0,0,0,.112.778,2.187,2.187,0,0,0,.332.668,1.539,1.539,0,0,0,.575.474A1.8,1.8,0,0,0,802.519,90.2Z" transform="translate(-409.986 -43.163)"></path>
      <path id="Caminho_2754" data-name="Caminho 2754" d="M821.582,92.115V84.153h3.658a2.482,2.482,0,0,1,1.073.241,2.633,2.633,0,0,1,.854.63,3.051,3.051,0,0,1,.547.885,2.629,2.629,0,0,1,.2,1,2.831,2.831,0,0,1-.3,1.292,2.623,2.623,0,0,1-.841.98l1.682,2.929h-2.4l-1.4-2.442h-.887v2.442Zm2.185-4.353h1.38a.478.478,0,0,0,.383-.233,1.022,1.022,0,0,0,.17-.616.951.951,0,0,0-.192-.619.541.541,0,0,0-.416-.235h-1.325Z" transform="translate(-421.852 -43.209)"></path>
      <path id="Caminho_2755" data-name="Caminho 2755" d="M847.321,86.059h-2.284v6.056h-2.19V86.059h-2.3V84.153h6.774Z" transform="translate(-431.59 -43.21)"></path>
      <path id="Caminho_2756" data-name="Caminho 2756" d="M866.361,90.21v1.905h-5.674V84.153h5.575v1.906h-3.388v1.122h2.9V88.95h-2.9v1.26Z" transform="translate(-441.931 -43.21)"></path>
      <rect id="Retângulo_2466" data-name="Retângulo 2466" width="0.908" height="40.287" transform="translate(288.931 17.192)"></rect>
      <rect id="Retângulo_2467" data-name="Retângulo 2467" width="0.908" height="40.287" transform="translate(108.971 17.192)"></rect>
      <path id="Caminho_2757" data-name="Caminho 2757" d="M426.172,60.935V55.826a.69.69,0,0,1,.1-.289.311.311,0,0,1,.289-.1h.772a.685.685,0,0,1,.289.1.354.354,0,0,1,.1.289v4.337h3.566a.682.682,0,0,1,.289.1c.1.1.1.146.1.292v.385a.688.688,0,0,1-.1.289c-.1.1-.146.1-.289.1h-4.723a.689.689,0,0,1-.288-.1c-.1-.051-.1-.2-.1-.292" transform="translate(-218.824 -28.466)"></path>
      <path id="Caminho_2758" data-name="Caminho 2758" d="M438.88,62.114a2.714,2.714,0,0,1,0-3.47,2.943,2.943,0,0,1,3.566-.049,2.151,2.151,0,0,1,.626,1.687v.241c0,.1,0,.146-.049.195s-.1.049-.195.049h-3.084a1.258,1.258,0,0,0,.289.723,1.134,1.134,0,0,0,.771.241,1.05,1.05,0,0,0,.771-.241.669.669,0,0,1,.482-.241h.627c.1,0,.146,0,.195.049s.049.1.049.195c0,.771-.771,1.156-2.265,1.156a2.273,2.273,0,0,1-1.783-.534m.772-2.168h1.927c-.048-.627-.338-.964-.964-.964a.909.909,0,0,0-.963.852A.707.707,0,0,0,439.652,59.945Z" transform="translate(-225.027 -29.79)"></path>
      <path id="Caminho_2759" data-name="Caminho 2759" d="M449.646,55.87v-.146a.493.493,0,0,1,.481-.482h.53a.494.494,0,0,1,.482.482v.146a.5.5,0,0,1-.482.482h-.53a.494.494,0,0,1-.481-.482m0,5.06v-3.9c0-.1,0-.146.048-.195s.1-.049.2-.049h.915c.1,0,.146,0,.195.049s.049.1.049.195v3.9c0,.1,0,.146-.049.195s-.1.049-.195.049h-.915c-.1,0-.146,0-.2-.049s-.048-.1-.048-.195" transform="translate(-230.877 -28.365)"></path>
      <path id="Caminho_2760" data-name="Caminho 2760" d="M462.169,61.367a1.835,1.835,0,0,1-1.446-.626,2.894,2.894,0,0,1,0-3.47,2.154,2.154,0,0,1,1.591-.578,4.113,4.113,0,0,1,1.2.195V55.681c0-.1,0-.146.049-.195s.1-.049.195-.049h.916c.1,0,.146,0,.194.049s.049.1.049.195v5.4a.293.293,0,0,1-.049.195c-.049.049-.1.049-.194.049h-.771c-.1,0-.145,0-.195-.049s-.049-.1-.049-.195v-.146a2.49,2.49,0,0,1-1.494.435m-.289-3.325a2.241,2.241,0,0,0,0,2.024.843.843,0,0,0,.674.338,2.38,2.38,0,0,0,1.06-.386V57.85a3.217,3.217,0,0,0-.867-.146c-.433,0-.722.1-.867.339" transform="translate(-236.267 -28.465)"></path>
      <path id="Caminho_2761" data-name="Caminho 2761" d="M472.26,62.114a2.716,2.716,0,0,1,0-3.47,2.942,2.942,0,0,1,3.566-.049,2.151,2.151,0,0,1,.626,1.687v.241c0,.1,0,.146-.049.195s-.1.049-.195.049h-3.084a1.258,1.258,0,0,0,.289.723,1.135,1.135,0,0,0,.771.241,1.05,1.05,0,0,0,.771-.241.669.669,0,0,1,.482-.241h.627c.1,0,.146,0,.195.049s.049.1.049.195c0,.771-.771,1.156-2.265,1.156a2.335,2.335,0,0,1-1.783-.534m.819-2.168h1.928c-.049-.627-.338-.964-.964-.964S473.127,59.319,473.079,59.945Z" transform="translate(-242.166 -29.79)"></path>
      <path id="Caminho_2762" data-name="Caminho 2762" d="M426.568,97.481V92.372a.676.676,0,0,1,.1-.292c.049-.1.146-.1.289-.1h4.723a.685.685,0,0,1,.289.1c.1.1.1.146.1.292v.385a.685.685,0,0,1-.1.289c-.1.1-.146.1-.289.1H428.11v1.205h3.084a.689.689,0,0,1,.29.1c.1.1.1.146.1.289v.385a.676.676,0,0,1-.1.289c-.1.1-.146.1-.29.1H428.11v1.2h3.566a.685.685,0,0,1,.289.1c.1.1.1.146.1.289v.386a.685.685,0,0,1-.1.289c-.1.1-.146.1-.289.1H427a.685.685,0,0,1-.289-.1.415.415,0,0,1-.145-.292" transform="translate(-219.027 -47.23)"></path>
      <path id="Caminho_2763" data-name="Caminho 2763" d="M438.847,96.015c0-.867.723-1.35,2.12-1.35,1.494,0,2.265.386,2.265,1.157a.29.29,0,0,1-.049.195c-.049.049-.1.049-.195.049h-.623a.593.593,0,0,1-.482-.241,1.048,1.048,0,0,0-.771-.243c-.53,0-.819.146-.819.386,0,.146.1.243.337.289a3.011,3.011,0,0,0,.771.195,6.454,6.454,0,0,1,.916.241,2.021,2.021,0,0,1,.771.434,1.138,1.138,0,0,1,.337.771c0,.867-.771,1.349-2.265,1.349s-2.265-.385-2.265-1.156c0-.1,0-.146.049-.195s.1-.049.195-.049h.627a.593.593,0,0,1,.482.241,1.045,1.045,0,0,0,.771.241c.626,0,.964-.146.964-.385,0-.146-.1-.243-.338-.292a7.6,7.6,0,0,0-.771-.241,6.387,6.387,0,0,1-.916-.241,2,2,0,0,1-.771-.434.812.812,0,0,1-.341-.721" transform="translate(-225.331 -48.607)"></path>
      <path id="Caminho_2764" data-name="Caminho 2764" d="M449.645,100.4V95c0-.1,0-.146.049-.195s.1-.049.195-.049h.771a.293.293,0,0,1,.195.049c.049.049.049.1.049.195v.146a2.631,2.631,0,0,1,1.494-.482,1.832,1.832,0,0,1,1.446.627,2.892,2.892,0,0,1,0,3.47,2.15,2.15,0,0,1-1.591.578,4.116,4.116,0,0,1-1.2-.195V100.4c0,.1,0,.146-.049.195s-.1.049-.195.049h-.916a.29.29,0,0,1-.195-.049c0-.05-.049-.146-.049-.194m1.445-2.217a3.263,3.263,0,0,0,.867.146.935.935,0,0,0,.819-.337,2.247,2.247,0,0,0,0-2.024.843.843,0,0,0-.675-.338,2.059,2.059,0,0,0-1.012.386Z" transform="translate(-230.876 -48.607)"></path>
      <path id="Caminho_2765" data-name="Caminho 2765" d="M461.266,98.813a2.715,2.715,0,0,1,0-3.47,3.189,3.189,0,0,1,3.662,0,2.716,2.716,0,0,1,0,3.47,3.189,3.189,0,0,1-3.662,0m1.012-2.843a1.652,1.652,0,0,0-.241,1.06,2.022,2.022,0,0,0,.241,1.06,1.163,1.163,0,0,0,1.638,0,1.643,1.643,0,0,0,.243-1.06,2.018,2.018,0,0,0-.243-1.06.933.933,0,0,0-.819-.338A1.078,1.078,0,0,0,462.278,95.97Z" transform="translate(-236.521 -48.658)"></path>
      <path id="Caminho_2766" data-name="Caminho 2766" d="M475.505,95.719l-.627-.049a1.332,1.332,0,0,0-1.06.626v2.6c0,.1,0,.146-.049.195s-.1.049-.195.049h-.916c-.1,0-.146,0-.195-.049s-.049-.1-.049-.195v-4c0-.1,0-.146.049-.195s.1-.049.195-.049h.916c.1,0,.146,0,.195.049s.049.1.049.195v.241a3.372,3.372,0,0,1,.819-.434,2.8,2.8,0,0,1,1.012-.146c.1,0,.146,0,.194.049s.049.1.049.195v.626c0,.1,0,.146-.049.195s-.1.049-.194.049l-.146.049Z" transform="translate(-242.568 -48.552)"></path>
      <path id="Caminho_2767" data-name="Caminho 2767" d="M482.817,97.055l.578-.049h.146c.1,0,.146,0,.195.049s.049.1.049.195v.434a.178.178,0,0,1-.049.146.25.25,0,0,1-.195.1,6.271,6.271,0,0,1-1.108.1,1.617,1.617,0,0,1-1.783-1.831V92.338c0-.1,0-.146.049-.195s.1-.049.195-.049h.916a.293.293,0,0,1,.195.049c.049.049.049.1.049.195v1.35h1.156a.293.293,0,0,1,.195.049c.049.049.049.1.049.195v.482c0,.1,0,.146-.049.195s-.1.049-.195.049h-1.156V96.2a.819.819,0,0,0,.195.627,1,1,0,0,0,.571.231" transform="translate(-246.796 -47.286)"></path>
      <path id="Caminho_2768" data-name="Caminho 2768" d="M488.5,98.662a2.715,2.715,0,0,1,0-3.469,2.939,2.939,0,0,1,3.566-.049,2.149,2.149,0,0,1,.627,1.685v.241c0,.1,0,.146-.049.195s-.1.049-.195.049h-3.132a1.267,1.267,0,0,0,.289.723,1.132,1.132,0,0,0,.771.241,1.047,1.047,0,0,0,.771-.241.671.671,0,0,1,.482-.241h.627c.1,0,.146,0,.195.049s.049.1.049.195c0,.771-.771,1.157-2.265,1.157a1.96,1.96,0,0,1-1.735-.533m.819-2.12h1.928c-.049-.626-.338-.964-.964-.964-.627-.048-.916.289-.964.964" transform="translate(-250.507 -48.556)"></path>
      <path id="Caminho_2769" data-name="Caminho 2769" d="M426.667,79.009V73.852a.7.7,0,0,1,.1-.289c.1-.1.146-.1.289-.1h.772a.681.681,0,0,1,.289.1c.1.1.1.146.1.289V78.96a.684.684,0,0,1-.1.289.353.353,0,0,1-.289.1h-.772a.685.685,0,0,1-.289-.1c-.1-.048-.1-.144-.1-.24" transform="translate(-219.078 -37.722)"></path>
      <path id="Caminho_2770" data-name="Caminho 2770" d="M432.113,80.478v-4c0-.1,0-.146.049-.195s.1-.049.195-.049h.916a.291.291,0,0,1,.195.049c.049.049.049.1.049.195v.241a2.337,2.337,0,0,1,1.494-.578,1.747,1.747,0,0,1,1.3.482,1.993,1.993,0,0,1,.482,1.494v2.361a.29.29,0,0,1-.049.195c-.049.049-.1.049-.195.049h-.916a.29.29,0,0,1-.195-.049c-.049-.049-.049-.1-.049-.195V78.117c0-.675-.243-.964-.771-.964a1.664,1.664,0,0,0-1.108.578v2.747a.29.29,0,0,1-.049.195c-.049.049-.1.049-.195.049h-.916a.293.293,0,0,1-.195-.049c0-.05-.044-.1-.044-.195" transform="translate(-221.874 -39.094)"></path>
      <path id="Caminho_2771" data-name="Caminho 2771" d="M445.914,80.864a2.559,2.559,0,0,1-1.783-.578,2.713,2.713,0,0,1,0-3.47,2.559,2.559,0,0,1,1.783-.578,3.926,3.926,0,0,1,1.735.337,1.2,1.2,0,0,1,.627,1.06c0,.1,0,.146-.048.195s-.1.049-.2.049h-.626a.586.586,0,0,1-.482-.289.939.939,0,0,0-.867-.385.975.975,0,0,0-.867.337,2.244,2.244,0,0,0,0,2.024,1.117,1.117,0,0,0,.867.337.939.939,0,0,0,.867-.385.586.586,0,0,1,.482-.289h.626c.1,0,.146,0,.2.049s.048.1.048.195a1.112,1.112,0,0,1-.627,1.06,3.464,3.464,0,0,1-1.735.332" transform="translate(-227.723 -39.143)"></path>
      <path id="Caminho_2772" data-name="Caminho 2772" d="M454.828,80.24a2.715,2.715,0,0,1,0-3.47,2.942,2.942,0,0,1,3.566-.049,2.148,2.148,0,0,1,.627,1.687v.241c0,.1,0,.146-.049.195s-.1.049-.195.049h-3.13a1.263,1.263,0,0,0,.289.723,1.133,1.133,0,0,0,.771.243,1.047,1.047,0,0,0,.771-.243.67.67,0,0,1,.482-.241h.626c.1,0,.146,0,.195.049s.049.1.049.195c0,.771-.771,1.157-2.265,1.157a2.22,2.22,0,0,1-1.736-.534m.771-2.169h1.928c-.049-.626-.337-.963-.964-.963C455.984,77.107,455.647,77.4,455.6,78.071Z" transform="translate(-233.216 -39.097)"></path>
      <path id="Caminho_2773" data-name="Caminho 2773" d="M465.592,80.478v-4c0-.1,0-.146.049-.195s.1-.049.195-.049h.916a.29.29,0,0,1,.195.049c.049.049.049.1.049.195v.241a2.337,2.337,0,0,1,1.494-.578,1.747,1.747,0,0,1,1.3.482,1.994,1.994,0,0,1,.482,1.494v2.361a.29.29,0,0,1-.049.195c-.049.049-.1.049-.195.049h-.918a.29.29,0,0,1-.195-.049c-.049-.049-.049-.1-.049-.195V78.117c0-.675-.241-.964-.771-.964a1.664,1.664,0,0,0-1.108.578v2.747a.293.293,0,0,1-.049.195c-.049.049-.1.049-.195.049h-.913a.293.293,0,0,1-.195-.049c-.044-.05-.044-.1-.044-.195" transform="translate(-239.064 -39.094)"></path>
      <path id="Caminho_2774" data-name="Caminho 2774" d="M479.45,78.534l.578-.049h.145c.1,0,.146,0,.195.049s.049.1.049.195v.434a.176.176,0,0,1-.049.146.249.249,0,0,1-.195.1,6.264,6.264,0,0,1-1.108.1,1.617,1.617,0,0,1-1.783-1.831V73.817c0-.1,0-.146.049-.195s.1-.049.195-.049h.915a.292.292,0,0,1,.195.049c.049.049.049.1.049.195v1.349h1.157a.293.293,0,0,1,.194.049c.049.049.049.1.049.195v.482c0,.1,0,.146-.049.195s-.1.049-.194.049h-1.163v1.494a.819.819,0,0,0,.195.627.834.834,0,0,0,.577.279" transform="translate(-245.067 -37.776)"></path>
      <path id="Caminho_2775" data-name="Caminho 2775" d="M485.1,73.9V73.75a.494.494,0,0,1,.482-.482h.53a.494.494,0,0,1,.482.482V73.9a.494.494,0,0,1-.482.482h-.53a.438.438,0,0,1-.337-.146.376.376,0,0,1-.145-.336M485.151,79V75.1c0-.1,0-.146.049-.195s.1-.049.195-.049h.914c.1,0,.146,0,.195.049s.049.1.049.195V79c0,.1,0,.146-.049.195s-.1.049-.195.049h-.916c-.1,0-.146,0-.195-.049s-.047-.1-.047-.2Z" transform="translate(-249.081 -37.62)"></path>
      <path id="Caminho_2776" data-name="Caminho 2776" d="M489.4,76.342h.771a.889.889,0,0,1,.337.1.581.581,0,0,1,.241.241l1.109,2.554,1.108-2.554a.4.4,0,0,1,.241-.241.693.693,0,0,1,.337-.1h.771a.25.25,0,0,1,.195.1v.1a.178.178,0,0,1-.049.146l-1.783,3.759a.58.58,0,0,1-.241.241.693.693,0,0,1-.337.1h-.627a.891.891,0,0,1-.337-.1.577.577,0,0,1-.243-.241l-1.783-3.759a.178.178,0,0,1-.049-.146c.146-.1.194-.195.339-.195" transform="translate(-251.114 -39.199)"></path>
      <path id="Caminho_2777" data-name="Caminho 2777" d="M501.479,80.291a2.715,2.715,0,0,1,0-3.47,3.19,3.19,0,0,1,3.663,0,2.717,2.717,0,0,1,0,3.47,3.19,3.19,0,0,1-3.663,0m1.06-2.8a1.651,1.651,0,0,0-.241,1.06,2.026,2.026,0,0,0,.241,1.06,1.164,1.164,0,0,0,1.639,0,1.652,1.652,0,0,0,.241-1.06,2.022,2.022,0,0,0-.241-1.06.936.936,0,0,0-.819-.337.883.883,0,0,0-.819.337" transform="translate(-257.169 -39.148)"></path>
      <path id="Caminho_2778" data-name="Caminho 2778" d="M518.714,80.428a1.168,1.168,0,0,1-.53-1.06,1.277,1.277,0,0,1,.53-1.06,2.51,2.51,0,0,1,1.4-.386h1.35a.868.868,0,0,0-.2-.674,1.314,1.314,0,0,0-1.446.049.668.668,0,0,1-.481.241h-.627c-.1,0-.146,0-.194-.049s-.049-.1-.049-.195c0-.771.723-1.156,2.217-1.156a2.7,2.7,0,0,1,1.59.434,1.443,1.443,0,0,1,.578,1.349v2.554c0,.1,0,.146-.048.195s-.1.049-.2.049h-.771c-.1,0-.146,0-.2-.049s-.048-.1-.048-.195v-.146a2.633,2.633,0,0,1-1.494.482,2.1,2.1,0,0,1-1.389-.382m1.012-1.4a.475.475,0,0,0-.011.671.464.464,0,0,0,.059.052.718.718,0,0,0,.482.146,2.229,2.229,0,0,0,1.2-.385v-.627h-1.253a.815.815,0,0,0-.482.143" transform="translate(-266.067 -39.092)"></path>
      <path id="Caminho_2779" data-name="Caminho 2779" d="M530.005,80.284a2.329,2.329,0,0,1,1.831-4.048,2.608,2.608,0,0,1,1.831.578,2.715,2.715,0,0,1,0,3.47,3.189,3.189,0,0,1-3.662,0m1.06-2.8a1.653,1.653,0,0,0-.241,1.06,2.024,2.024,0,0,0,.241,1.06,1.163,1.163,0,0,0,1.638,0,1.646,1.646,0,0,0,.243-1.06,2.013,2.013,0,0,0-.243-1.06.934.934,0,0,0-.819-.337.881.881,0,0,0-.819.337" transform="translate(-271.816 -39.141)"></path>
      <path id="Caminho_2780" data-name="Caminho 2780" d="M278.883,110.545s31.468-16.192,59.9,0c0,0-25.442-12.915-59.9,0" transform="translate(-143.196 -53.066)"></path>
      <path id="Caminho_2781" data-name="Caminho 2781" d="M384.174,66.14s5.542,5.879.434,12.481c0,0,3.518-1.735,2.7-6.939,0-.048.241-3.9-3.132-5.542" transform="translate(-197.259 -33.96)"></path>
      <path id="Caminho_2782" data-name="Caminho 2782" d="M373.874,72.332s1.831-5.445,5.927-7.084c0,0-4.674,1.012-5.927,7.084" transform="translate(-191.971 -33.502)"></path>
      <path id="Caminho_2783" data-name="Caminho 2783" d="M382.279,47.717a2.265,2.265,0,1,1-2.265,2.265,2.265,2.265,0,0,1,2.265-2.265" transform="translate(-195.123 -24.501)"></path>
      <path id="Caminho_2784" data-name="Caminho 2784" d="M376.608,63.358s3.565,1.542,3.565,6.6a7.433,7.433,0,0,1-1.927,5.349c-1.687,1.928-4.675,3.422-7.951-.723,0,0-.434,3.566,4.1,4.144a7.379,7.379,0,0,0,5.879-2.072,10.252,10.252,0,0,0,3.277-10.891,10.844,10.844,0,0,0-2.554-4.482Z" transform="translate(-190.127 -31.468)"></path>
      <path id="Caminho_2785" data-name="Caminho 2785" d="M373.557,61.347s-2.072-6.024,4.674-9.252a12.756,12.756,0,0,1,2.265-.819c1.783-.482,6.8-2.361,6.458-7.421,0,0,3.325,5.976-2.8,8.963a12.608,12.608,0,0,1-2.265.771c-1.542.289-5.4,1.4-6.843,4.192a9.213,9.213,0,0,0-1.494,3.566" transform="translate(-191.654 -22.517)"></path>
      <path id="Caminho_2786" data-name="Caminho 2786" d="M391.5,50.7s4.337-2.12,4.819-6.843c0,0,.723,5.012-4.819,6.843" transform="translate(-201.023 -22.517)"></path>
      <path id="Caminho_2787" data-name="Caminho 2787" d="M394.475,90.208s2.94,3.229,1.253,12c.048,0,3.036-8.674-1.253-12" transform="translate(-202.548 -46.318)"></path>
      <path id="Caminho_2788" data-name="Caminho 2788" d="M397.56,85.195a5.44,5.44,0,0,0-1.156-2.217,8.438,8.438,0,0,1-1.928,3.518c4.144,3.9,1.254,12,1.254,12,3.518-6.795,2.7-10.457,1.831-13.3" transform="translate(-202.548 -42.606)"></path>
      <path id="Caminho_2789" data-name="Caminho 2789" d="M298.6,58.81s.386,3.229,1.975,1.879c0,0-.482,1.157-1.493.049a1.66,1.66,0,0,1-.386-1.157Z" transform="translate(-153.319 -30.197)"></path>
      <path id="Caminho_2790" data-name="Caminho 2790" d="M284.732,99.79s2.794-4.914,1.252-13.445l.195.338s1.926,7.373-1.447,13.108" transform="translate(-146.199 -44.335)"></path>
      <path id="Caminho_2791" data-name="Caminho 2791" d="M298.442,64.6a1.127,1.127,0,0,0,1.108.627,1.016,1.016,0,0,1-1.309-.59,1.06,1.06,0,0,1-.04-.133v-.146l.146.1Z" transform="translate(-153.115 -33.043)"></path>
      <path id="Caminho_2792" data-name="Caminho 2792" d="M285.586,59.825a5.471,5.471,0,0,0-1.3-2.7s-6.843,5.542-.337,12.867c0,0,6.12,7.47,12.047,10.987-.048,0-15.515-11.9-10.409-21.156" transform="translate(-144.356 -29.332)"></path>
      <path id="Caminho_2793" data-name="Caminho 2793" d="M285,46.977l-1.59,1.59S281.39,44.085,287.7,38.2c0,.05-4.433,5.929-2.7,8.773" transform="translate(-145.364 -19.616)"></path>
      <path id="Caminho_2794" data-name="Caminho 2794" d="M285.017,83.294,282.849,80.4s2.506,12.529.916,16.336c0,0,2.795-4.434,1.253-13.445" transform="translate(-145.233 -41.284)"></path>
      <path id="Caminho_2795" data-name="Caminho 2795" d="M296.394,57.513s.241,0,.289-.195c.292.1.771.53.771.723.146.482.049.868.241,1.446.195.626,1.253,1.4,1.783.241-.241.916-1.2,1.831-2.168,1.108a1.018,1.018,0,0,0,1.3.723c-1.253.626-2.072-.964-2.169-1.4-.337-.916.675-2.12-.049-2.65" transform="translate(-152.176 -29.431)"></path>
      <path id="Caminho_2796" data-name="Caminho 2796" d="M296.205,56.674s-.049.292-.289.243l-.195-.195s.1-.289.289-.289a1.927,1.927,0,0,1,.2.24" transform="translate(-151.842 -28.977)"></path>
      <path id="Caminho_2797" data-name="Caminho 2797" d="M289.235,38.307s-3.807,6.024-2.7,8.771c0-.048-2.072-2.361,2.7-8.771" transform="translate(-146.896 -19.669)"></path>
      <path id="Caminho_2798" data-name="Caminho 2798" d="M289.115,62.673s-3.9,4.865,2.988,13.638c0,0,4.144,5.542,7.373,7.469,0,.048-13.4-10.264-10.361-21.107" transform="translate(-147.884 -32.18)"></path>
      <path id="Caminho_2799" data-name="Caminho 2799" d="M292.2,53.416c-.241.386-1.108.243-1.976-.289a2.5,2.5,0,0,1-1.2-1.349,1.873,1.873,0,1,0,3.181,1.638" transform="translate(-148.124 -26.586)"></path>
      <path id="Caminho_2800" data-name="Caminho 2800" d="M328.318,82.761a6.685,6.685,0,0,0-5.06-6.024h-1.494a4.752,4.752,0,0,0-1.156.146,5.936,5.936,0,0,1,.482,11.855,5.819,5.819,0,0,1-3.518-.867,2.1,2.1,0,0,0,.626.675,7.827,7.827,0,0,1,.916.434,1.782,1.782,0,0,1,.771.675,6.977,6.977,0,0,0,2.265.241,6.746,6.746,0,0,0,6.168-7.134" transform="translate(-163.062 -39.402)"></path>
      <path id="Caminho_2801" data-name="Caminho 2801" d="M319.693,88.808A5.918,5.918,0,0,0,318.873,77a6.194,6.194,0,0,0-1.3.241,6.8,6.8,0,0,1,2.217-.53A6.666,6.666,0,1,1,320.91,90c-.085.007-.17.013-.254.017a6.759,6.759,0,0,1-6.65-4.433,6.015,6.015,0,0,0,5.687,3.229" transform="translate(-161.231 -39.377)"></path>
      <path id="Caminho_2802" data-name="Caminho 2802" d="M320.263,88.381a3.621,3.621,0,0,0,4.333-2.73l0-.017a3.667,3.667,0,0,0-3.132-4.1.436.436,0,0,1-.243-.049,3.168,3.168,0,0,1,.675.049,3.621,3.621,0,1,1-1.191,7.143l-.062-.011A3.263,3.263,0,0,1,319.152,88a3.342,3.342,0,0,0,1.111.385" transform="translate(-163.873 -41.841)"></path>
      <path id="Caminho_2803" data-name="Caminho 2803" d="M312.065,62.035s-1.687-5.735,6.216-8.048c0,0,6.747-1.06,6.7-6.072,0,0,2.65,5.06-3.18,7.373a12.635,12.635,0,0,1-1.928.53c-1.4.241-4.819,1.108-6.313,3.373a7.394,7.394,0,0,0-1.494,2.843" transform="translate(-160.156 -24.603)"></path>
      <path id="Caminho_2804" data-name="Caminho 2804" d="M321.425,66.463a4,4,0,0,1-.292,4.192s3.084-1.687,5.975-.338c.051,0,1.833-8.477-5.683-3.855" transform="translate(-164.89 -33.418)"></path>
      <path id="Caminho_2805" data-name="Caminho 2805" d="M329.16,53.457s4-1.686,4.675-5.542c0,0,.337,4.1-4.675,5.542" transform="translate(-169.012 -24.603)"></path>
      <path id="Caminho_2806" data-name="Caminho 2806" d="M312.224,70.935s1.927-4.433,5.686-5.687a7.842,7.842,0,0,0-5.686,5.687" transform="translate(-160.316 -33.502)"></path>
      <path id="Caminho_2807" data-name="Caminho 2807" d="M323.161,50.391a2.024,2.024,0,1,1-2.024,2.024,2.024,2.024,0,0,1,2.024-2.024" transform="translate(-164.892 -25.874)"></path>
      <path id="Caminho_2808" data-name="Caminho 2808" d="M358.553,45.277a2.117,2.117,0,0,0-.867-4.144,2.182,2.182,0,0,0-1.59,2.554,2.058,2.058,0,0,0,2.433,1.6l.024-.005" transform="translate(-182.819 -21.097)"></path>
      <path id="Caminho_2809" data-name="Caminho 2809" d="M358.224,62.992a1.036,1.036,0,1,0,1.06-1.012,1.06,1.06,0,0,0-1.06,1.012m1.928.1a.876.876,0,0,1-.883.868h-.033a.892.892,0,0,1,.049-1.783.876.876,0,0,1,.866.885c0,.01,0,.019,0,.029Z" transform="translate(-183.935 -31.824)"></path>
      <path id="Caminho_2810" data-name="Caminho 2810" d="M357.384,39.962a10.219,10.219,0,0,1-1.108,1.927c-6.554,5.879-11.421-2.12-11.662-2.554a15.4,15.4,0,0,1-1.3-4,17.253,17.253,0,0,0,0,4.771,7.633,7.633,0,0,0,4.53,5.927.684.684,0,0,0,.292.1c.049.1.049.146.1.241a13.486,13.486,0,0,1,.578,4.385C347.8,59.625,341.2,67.769,341.2,67.769a22.123,22.123,0,0,0,9.638-10.553,52.59,52.59,0,0,1,.241,11.469s3.711-6.65,1.542-22.168c4.478-1.061,4.768-6.555,4.768-6.555M351.07,48.3a1.217,1.217,0,0,1,.627,1.108A1.181,1.181,0,1,1,350.01,48.3c-2.409-2.651-1.494-4.865-1.494-4.865l.819.241a4.9,4.9,0,0,0,1.06,4.482h.385a6.457,6.457,0,0,0,1.494-4.144l.964-.195c-.048,0-.434,3.18-2.169,4.481" transform="translate(-175.191 -18.144)"></path>
      <path id="Caminho_2811" data-name="Caminho 2811" d="M306.215,68.622l-2.169-2.843.1-.53.146.049,2.072,2.94s.094.337-.146.385" transform="translate(-156.116 -33.502)"></path>
      <path id="Caminho_2812" data-name="Caminho 2812" d="M303.154,67.166v-.337l.291-.1,2.409,2.6s-.049.195-.289.049-2.412-2.217-2.412-2.217" transform="translate(-155.658 -34.264)"></path>
      <path id="Caminho_2813" data-name="Caminho 2813" d="M301.668,68.007l.337-.578,2.8,2.313Z" transform="translate(-154.896 -34.622)"></path>
      <path id="Caminho_2814" data-name="Caminho 2814" d="M299.6,73a14.322,14.322,0,0,1-3.181-.868,12.141,12.141,0,0,1,2.217-3.614l3.422,1.735Z" transform="translate(-152.2 -35.181)"></path>
      <path id="Caminho_2815" data-name="Caminho 2815" d="M293.745,68.1a4.913,4.913,0,0,1-1.4-1.878,5.329,5.329,0,0,0-1.783-2.457,3.058,3.058,0,0,0-.386,1.494v.049a7.523,7.523,0,0,0,2.94,4.1,9.716,9.716,0,0,1,.627-1.3" transform="translate(-148.996 -32.742)"></path>
      <path id="Caminho_2816" data-name="Caminho 2816" d="M305.564,71.823l-2.41,2.747a.675.675,0,0,0,.243.146c.1,0,2.457-2.6,2.457-2.6a.364.364,0,0,0,.1-.627c-.051-.049-.051.433-.388.337" transform="translate(-155.658 -36.704)"></path>
      <path id="Caminho_2817" data-name="Caminho 2817" d="M298.541,64.4a1.127,1.127,0,0,0,1.108.627,1.016,1.016,0,0,1-1.309-.59,1.05,1.05,0,0,1-.04-.133v-.146l.146.1Z" transform="translate(-153.166 -32.942)"></path>
      <path id="Caminho_2818" data-name="Caminho 2818" d="M296.493,57.219s.241,0,.289-.195c.292.1.771.53.771.723.146.482.049.868.241,1.446.195.626,1.253,1.4,1.783.241-.241.916-1.2,1.831-2.169,1.108a1.019,1.019,0,0,0,1.3.723c-1.253.626-2.072-.964-2.169-1.4-.337-.867.675-2.072-.049-2.65" transform="translate(-152.226 -29.28)"></path>
      <path id="Caminho_2819" data-name="Caminho 2819" d="M296.3,56.474s-.049.292-.289.241l-.195-.195s.1-.289.289-.289a.52.52,0,0,1,.2.243" transform="translate(-151.893 -28.873)"></path>
      <path id="Caminho_2820" data-name="Caminho 2820" d="M289.036,46.415l3.325.578a.485.485,0,0,1,.337.195l2.024,2.651c.049.049,0,.146-.049.1l-3.421-.578a.484.484,0,0,1-.337-.195l-2.024-2.651c.048-.049.1-.145.145-.1" transform="translate(-148.335 -23.826)"></path>
      <path id="Caminho_2821" data-name="Caminho 2821" d="M291.6,50.89a.488.488,0,0,1-.338-.195L290.2,49.3l-.433.674-.049.049c-.241.386.289,1.108,1.157,1.639s1.735.675,1.976.289V51.9l.434-.674Z" transform="translate(-148.73 -25.313)"></path>
      <path id="Caminho_2822" data-name="Caminho 2822" d="M292.3,53.218c-.241.386-1.108.243-1.976-.289a2.5,2.5,0,0,1-1.2-1.349,1.873,1.873,0,1,0,3.18,1.638" transform="translate(-148.174 -26.484)"></path>
      <path id="Caminho_2823" data-name="Caminho 2823" d="M503.329,97.894h4.578V94.665h-4.578Zm2.265-.338-1.976-1.3,1.976-1.3,1.976,1.3Z" transform="translate(-258.441 -48.607)"></path>
      <path id="Caminho_2824" data-name="Caminho 2824" d="M506.734,97.833a1.334,1.334,0,0,0-.434.049.845.845,0,0,0,.818.819.789.789,0,0,0,.723-.482,1.626,1.626,0,0,0-1.107-.385m-.19.383h0l-.049-.049Zm.243.243h0l-.049-.049Zm0-.386h0l-.049-.049Z" transform="translate(-259.966 -50.233)"></path>
      <path id="Caminho_2825" data-name="Caminho 2825" d="M507.118,96.248a.871.871,0,0,0-.82.675,1.336,1.336,0,0,1,.434-.049,1.759,1.759,0,0,1,1.109.434c0-.1.049-.146.049-.241a.721.721,0,0,0-.615-.814.707.707,0,0,0-.157,0" transform="translate(-259.965 -49.418)"></path>
      <path id="Caminho_2826" data-name="Caminho 2826" d="M506.5,97.713h0c0,.049,0,.049.049.049h.049v-.049c-.049,0-.049-.049-.1,0m0,.049h0v-.049c.049,0,.049,0,0,.049.049-.049.049,0,0,0" transform="translate(-260.068 -50.161)"></path>
      <path id="Caminho_2827" data-name="Caminho 2827" d="M506.7,97.732h0l.048-.049H506.7Zm0-.1h0c.048,0,.048.049,0,0" transform="translate(-260.17 -50.132)"></path>
      <path id="Caminho_2828" data-name="Caminho 2828" d="M506.89,97.732h0c.049-.049.049-.049,0-.049h-.1Zm-.049-.1h0c.049,0,.049.049,0,0l.049.049Z" transform="translate(-260.22 -50.132)"></path>
      <path id="Caminho_2829" data-name="Caminho 2829" d="M507.093,97.732v-.049h.049Z" transform="translate(-260.373 -50.132)"></path>
      <path id="Caminho_2830" data-name="Caminho 2830" d="M507.292,97.633v0l.049-.1v.049l-.049.049v0Z" transform="translate(-260.476 -50.081)"></path>
      <path id="Caminho_2831" data-name="Caminho 2831" d="M507.682,97.732v-.1h.049v.049l-.049-.049v.1Z" transform="translate(-260.676 -50.132)"></path>
      <path id="Caminho_2832" data-name="Caminho 2832" d="M508.082,97.784h0c.049,0,.049,0,.049-.049h-.049Zm0,0h0c0-.049.049-.049,0,0" transform="translate(-260.881 -50.183)"></path>
      <path id="Caminho_2833" data-name="Caminho 2833" d="M508.383,97.835h0c0,.049,0,.049.048.049v-.049Zm0,.049h0l.048-.049c0,.049,0,.049-.048.049" transform="translate(-261.036 -50.235)"></path>
      <path id="Caminho_2834" data-name="Caminho 2834" d="M508.631,97.934h0c.049,0,.049.049,0,0l-.049.049.049-.049v0Z" transform="translate(-261.138 -50.286)"></path>
      <path id="Caminho_2835" data-name="Caminho 2835" d="M508.876,98.18l.049-.049.049.049-.049-.049v.1Z" transform="translate(-261.289 -50.387)"></path>
      <path id="Caminho_2836" data-name="Caminho 2836" d="M509.073,98.18h0l.049-.049c0,.049,0,.049-.049.049h.049c0,.049,0,.049-.049,0,.049.049,0,.049,0,0" transform="translate(-261.39 -50.387)"></path>
      <path id="Caminho_2837" data-name="Caminho 2837" d="M509.272,98.279h0c0,.049.049.049,0,0l.049-.049c0,.049,0,.049-.049.049h.049c0,.049,0,.049-.049,0,.049.049,0,.049,0,0" transform="translate(-261.493 -50.437)"></path>
      <path id="Caminho_2838" data-name="Caminho 2838" d="M509.419,98.429h0c-.048,0-.048.049,0,0-.048.049-.048.049,0,.049h.1c-.049,0-.049,0-.1-.049m-.048.049h0l.048-.049c0,.049,0,.049-.048.049" transform="translate(-261.543 -50.54)"></path>
    </g>
  </g>
  <g id="Grupo_5457" data-name="Grupo 5457" transform="translate(0 28.089)">
    <g id="Grupo_5456" data-name="Grupo 5456" clip-path="url(#clip-path-2)">
      <path id="Caminho_2839" data-name="Caminho 2839" d="M28.646,82.432a3.154,3.154,0,1,1-6.307.078c0-.026,0-.052,0-.078V79.278h3.154a3.2,3.2,0,0,1,3.154,3.154" transform="translate(-11.47 -68.795)" fill-rule="evenodd"></path>
      <path id="Caminho_2840" data-name="Caminho 2840" d="M21.9,57.994h9.76a2.609,2.609,0,0,1,2.6,2.6V73.719a2.61,2.61,0,0,1-2.6,2.6H30.082a6.984,6.984,0,0,0,2.043-4.986,7.055,7.055,0,0,0-7.035-7.074H21.9Z" transform="translate(-11.244 -57.867)" fill-rule="evenodd"></path>
      <path id="Caminho_2841" data-name="Caminho 2841" d="M13.479,80.942v2.685a7.06,7.06,0,0,0,2.043,4.517H13.138V81.837a1.245,1.245,0,0,1,.341-.895" transform="translate(-6.746 -69.649)" fill-rule="evenodd"></path>
      <path id="Caminho_2842" data-name="Caminho 2842" d="M4.136,64.259A1.96,1.96,0,1,0,2.175,62.3a1.983,1.983,0,0,0,1.961,1.96M2.6,57.994H6.737V64.3a5.871,5.871,0,0,0-4.219,4.9v7.159A2.593,2.593,0,0,1,0,73.762V60.636a2.592,2.592,0,0,1,2.542-2.642H2.6" transform="translate(0 -57.867)" fill-rule="evenodd"></path>
      <path id="Caminho_2843" data-name="Caminho 2843" d="M113.856,58.579a.794.794,0,0,0-.681.3,1.112,1.112,0,0,0-.256.767,1.041,1.041,0,0,0,.256.767.848.848,0,0,0,.681.3.794.794,0,0,0,.681-.3,1.19,1.19,0,0,0,.256-.767,1.041,1.041,0,0,0-.256-.767.794.794,0,0,0-.681-.3m0-.852a1.717,1.717,0,0,1,.938.256,1.743,1.743,0,0,1,.681.681,2.006,2.006,0,0,1,0,1.961,1.743,1.743,0,0,1-.681.681,1.827,1.827,0,0,1-.938.256,1.717,1.717,0,0,1-.938-.256,1.743,1.743,0,0,1-.681-.681,2.006,2.006,0,0,1,0-1.961,1.743,1.743,0,0,1,.681-.681,1.827,1.827,0,0,1,.938-.256m-6.435.085v.724H106.4v2.985H105.5V58.537h-.98v-.724Zm-9.759,0v2.131a.724.724,0,0,0,.17.554.61.61,0,0,0,.469.213.549.549,0,0,0,.469-.213.724.724,0,0,0,.17-.554V57.812h.9v2.131a1.984,1.984,0,0,1-.213.895,1.387,1.387,0,0,1-.554.554,1.724,1.724,0,0,1-.81.17,1.457,1.457,0,0,1-.767-.17,1.387,1.387,0,0,1-.554-.554,1.984,1.984,0,0,1-.213-.895V57.812Zm-5.54,0v.724H91.1v2.985h-.9V58.537h-.98v-.724Zm-7.586,3.71h-.895v-3.71h.895Zm-5.583-3.71v.724h-.98v2.985h-.895V58.537H76.1v-.724ZM71.5,60.455a.855.855,0,0,1-.17.554.934.934,0,0,1-.426.383,1.836,1.836,0,0,1-.724.128,1.538,1.538,0,0,1-1.022-.3,1.049,1.049,0,0,1-.426-.852h.938a.389.389,0,0,0,.17.341.566.566,0,0,0,.341.128.361.361,0,0,0,.256-.085c.085-.043.085-.128.085-.256a.607.607,0,0,0-.085-.256.922.922,0,0,0-.213-.17,2,2,0,0,0-.383-.128c-.213-.085-.427-.172-.553-.213a1.387,1.387,0,0,1-.383-.341,1.1,1.1,0,0,1-.17-.6.784.784,0,0,1,.17-.554,1.42,1.42,0,0,1,.469-.383,1.767,1.767,0,0,1,.68-.128,1.421,1.421,0,0,1,.98.3,1.17,1.17,0,0,1,.426.81h-.98a.437.437,0,0,0-.426-.426.607.607,0,0,0-.256.085c-.085.043-.085.128-.085.256a.324.324,0,0,0,.085.213.922.922,0,0,0,.213.17,2,2,0,0,0,.383.128,4.139,4.139,0,0,1,.6.256,1.006,1.006,0,0,1,.383.341,1.235,1.235,0,0,1,.128.6m-7.585,1.023h-.9l-1.491-2.259v2.259h-.9V57.77h.895l1.492,2.3v-2.3h.9Zm-8.183.045h-.9v-3.71h.895Z" transform="translate(-28.155 -57.727)"></path>
      <path id="Caminho_2844" data-name="Caminho 2844" d="M115.646,73.351V83.877h-2.557V77.272l-2.3,6.605h-2.216l-2.3-6.605v6.606h-2.557V73.351h3.154l2.855,7.33,2.812-7.33Zm-17.43,1.96v2.218h3.58v1.918h-3.58v2.344h4.048v2.043H95.659V73.223h6.605v2.043Zm-7.969,6.478q1.406,0,1.406-1.151a1.1,1.1,0,0,0-.383-.895A1.6,1.6,0,0,0,90.2,79.4H88.372V81.79Zm-1.832-4.176h1.662c.895,0,1.321-.383,1.321-1.151s-.469-1.151-1.362-1.151H88.373v2.3Zm3.795.81a2.848,2.848,0,0,1,1.534.938,2.491,2.491,0,0,1,.554,1.619A2.676,2.676,0,0,1,93.4,83.11a3.94,3.94,0,0,1-2.6.767H85.86V73.266h4.817a4.012,4.012,0,0,1,2.514.724,2.417,2.417,0,0,1,.895,2,2.539,2.539,0,0,1-.511,1.619,2.365,2.365,0,0,1-1.362.81m-13.346-.3h1.577a1.562,1.562,0,0,0,1.108-.341,1.2,1.2,0,0,0,.341-.98,1.222,1.222,0,0,0-.383-.98,1.509,1.509,0,0,0-1.108-.341H78.824v2.642Zm2.855,5.753-2.3-4.006h-.6v4.006H76.268V73.266h4.39a4.636,4.636,0,0,1,2.131.426,3.019,3.019,0,0,1,1.321,1.193,3.319,3.319,0,0,1,.426,1.747,3.092,3.092,0,0,1-.639,1.96A3.181,3.181,0,0,1,82.021,79.7l2.514,4.176ZM70.814,75.312v2.218h3.58v1.918h-3.58v2.344h4.048v2.043H68.257V73.223h6.605v2.043Zm-4.006,5.583a2.783,2.783,0,0,1-.426,1.534A2.964,2.964,0,0,1,65.1,83.536a4.213,4.213,0,0,1-2,.426,4.9,4.9,0,0,1-2.941-.852,3.282,3.282,0,0,1-1.279-2.429h2.728a1.384,1.384,0,0,0,.426.938,1.406,1.406,0,0,0,.938.341,1.041,1.041,0,0,0,.767-.256,1.028,1.028,0,0,0,.3-.724.968.968,0,0,0-.254-.681,1.687,1.687,0,0,0-.639-.426c-.256-.128-.639-.256-1.066-.426a11.02,11.02,0,0,1-1.662-.681,3.032,3.032,0,0,1-1.109-.981,2.84,2.84,0,0,1-.469-1.662,2.8,2.8,0,0,1,.469-1.619,3.26,3.26,0,0,1,1.321-1.066,4.593,4.593,0,0,1,1.96-.383,4.342,4.342,0,0,1,2.813.852,3.22,3.22,0,0,1,1.193,2.3h-2.77a1.437,1.437,0,0,0-.381-.852,1.1,1.1,0,0,0-.852-.3,1,1,0,0,0-.724.256.955.955,0,0,0-.3.724.869.869,0,0,0,.256.639,2.391,2.391,0,0,0,.639.426,10.877,10.877,0,0,0,1.066.426,11.018,11.018,0,0,1,1.662.681,3.031,3.031,0,0,1,1.108.98,2.788,2.788,0,0,1,.511,1.7m-9.42,2.985H54.832V73.266h2.557Z" transform="translate(-28.155 -65.596)"></path>
    </g>
  </g>
</svg>
