<?xml version="1.0" encoding="utf-8"?>
<!-- Generator: Adobe Illustrator 27.2.0, SVG Export Plug-In . SVG Version: 6.00 Build 0)  -->
<svg version="1.1" id="Camada_1" xmlns="http://www.w3.org/2000/svg" xmlns:xlink="http://www.w3.org/1999/xlink" x="0px" y="0px"
	 viewBox="0 0 920 920" style="enable-background:new 0 0 920 920;" xml:space="preserve">
<style type="text/css">
	.st0{fill:#FFFFFF;}
</style>
<g transform="translate(0.000000,920.000000) scale(0.100000,-0.100000)">
	<path class="st0" d="M3495,8813c-193-41-382-151-507-295c-155-179-238-420-225-653c24-409,307-749,704-847c123-30,303-30,426,0
		c273,67,495,248,617,503c256,537-63,1172-652,1293C3762,8834,3589,8834,3495,8813z"/>
	<path class="st0" d="M5510,8811c-188-42-335-125-471-267c-106-112-166-212-212-359c-102-325-15-679,227-921
		c123-123,275-207,454-251c100-24,313-22,413,5c326,88,560,310,664,632c37,114,46,314,20,441c-36,180-117,332-250,465
		c-123,125-248,198-420,247C5831,8832,5622,8836,5510,8811z"/>
	<path class="st0" d="M7030,7163c-36-8-357-133-715-277l-650-261l-1480-5c-1480-5-1480-6-1560-27c-240-65-405-154-490-265
		c-33-42-59-111-322-838c-47-129-93-251-103-271c-33-64-52-160-52-260c1-132-22-70,418-1134c90-218,132-282,239-362l70-53l5,1031
		l5,1031l28,24c49,42,125,22,146-37c8-23,11-682,11-2358c0-1934,3-2335,14-2377c35-133,139-259,261-316c86-40,210-50,301-23
		c175,50,305,197,333,375c7,42,11,519,11,1371c0,1286,0,1307,20,1331c23,30,62,40,102,26c61-22,58,59,58-1390c0-1157,2-1331,15-1383
		c54-205,234-344,446-345c208,0,391,142,444,345c13,52,15,335,15,2450c0,2313,1,2391,19,2431c10,23,36,54,57,70l37,29l561,6
		c629,6,606,4,786,84c173,78,972,451,1135,531c189,92,253,144,306,252c28,58,34,80,37,158c5,113-12,177-69,263
		C7374,7131,7194,7203,7030,7163z"/>
	<path class="st0" d="M7050,6043c-306-147-979-457-1030-475c-125-43-198-48-692-48c-526,0-518,1-537-68c-8-25-11-788-11-2384
		c0-2254,1-2349,18-2406c24-77,69-141,131-186c94-69,204-106,319-106c188,0,356,117,429,300c17,42,18,132,23,1407l5,1363l27,27
		c40,39,91,38,129-5l29-32V2107c0-1446-3-1379,58-1491c152-281,509-330,733-102c53,54,102,146,118,224c8,38,11,726,11,2388v2336
		l29,29c20,20,39,29,61,29s41-9,61-29l29-29V4435V3409l31,18c50,29,153,133,191,193c20,31,99,211,176,400c77,190,175,428,217,530
		s85,210,95,241c39,118,35,271-10,391c-18,47-482,904-498,919C7188,6104,7124,6078,7050,6043z"/>
</g>
</svg>
