<?xml version="1.0" encoding="UTF-8"?>
<svg xmlns="http://www.w3.org/2000/svg" width="18.756" height="16.305" viewBox="0 0 18.756 16.305">
  <path id="Caminho_2567" data-name="Caminho 2567" d="M17.7,6.613l.029.007H5.18L9.126,2.481a1.121,1.121,0,0,0,0-1.525L8.512.314a.995.995,0,0,0-1.45,0L.3,7.391a1.118,1.118,0,0,0,0,1.522l6.763,7.079a1,1,0,0,0,1.45,0l.614-.643a1.089,1.089,0,0,0,.3-.758,1.056,1.056,0,0,0-.3-.744L5.136,9.685h12.58a1.089,1.089,0,0,0,1.04-1.1V7.675A1.065,1.065,0,0,0,17.7,6.613Z" transform="translate(18.756 16.305) rotate(180)" fill="#f4f2ef"></path>
</svg>
