<?xml version="1.0" encoding="UTF-8"?>
<svg xmlns="http://www.w3.org/2000/svg" xmlns:xlink="http://www.w3.org/1999/xlink" width="336.249" height="40.497" viewBox="0 0 336.249 40.497">
  <defs>
    <clipPath id="clip-path">
      <rect id="Rectangle_2393" data-name="Rectangle 2393" width="336.249" height="40.497" fill="#fff"></rect>
    </clipPath>
  </defs>
  <g id="Group_5997" data-name="Group 5997" transform="translate(-49 -7.167)">
    <g id="Group_5344" data-name="Group 5344" transform="translate(49 7.167)" clip-path="url(#clip-path)">
      <path id="Path_2595" data-name="Path 2595" d="M962.288,136.5a2.247,2.247,0,0,1-.026.353,1.354,1.354,0,0,1-.092.32.959.959,0,0,1-.167.267.722.722,0,0,1-.259.179,1.006,1.006,0,0,1-.72,0,.728.728,0,0,1-.258-.176.939.939,0,0,1-.168-.265,1.35,1.35,0,0,1-.094-.323,2.181,2.181,0,0,1-.027-.357v-1.681h-.525V136.5a2.578,2.578,0,0,0,.047.5,1.79,1.79,0,0,0,.154.452,1.289,1.289,0,0,0,.269.368,1.185,1.185,0,0,0,.407.244,1.579,1.579,0,0,0,.553.091,1.541,1.541,0,0,0,.653-.13,1.121,1.121,0,0,0,.449-.361,1.643,1.643,0,0,0,.25-.525,2.381,2.381,0,0,0,.082-.642v-1.681h-.529Zm4.468.716-1.88-2.4h-.429v3.317h.522v-2.345l1.855,2.345h.458v-3.312h-.527Zm2.207.919h.522v-3.317h-.522Zm3.163-3.317-1.3,3.317h.557l.347-.9h1.28l.349.9h.552l-1.289-3.317Zm-.3,2.028.55-1.453.534,1.453Zm.02-2.469a.4.4,0,0,1,.027-.073.175.175,0,0,1,.071-.075.233.233,0,0,1,.123-.031.366.366,0,0,1,.174.05c.062.034.129.067.2.1a.547.547,0,0,0,.23.05.47.47,0,0,0,.214-.049.479.479,0,0,0,.154-.117.777.777,0,0,0,.1-.149.712.712,0,0,0,.055-.137.368.368,0,0,0,.015-.087h-.294a.2.2,0,0,1,0,.032.242.242,0,0,1-.019.056.251.251,0,0,1-.043.065.217.217,0,0,1-.075.053.263.263,0,0,1-.113.023.4.4,0,0,1-.189-.051c-.064-.034-.131-.068-.2-.1a.5.5,0,0,0-.221-.051.426.426,0,0,0-.2.047.435.435,0,0,0-.144.114.755.755,0,0,0-.091.146.69.69,0,0,0-.051.138.452.452,0,0,0-.013.094h.29a.205.205,0,0,1,.007-.045m5.821.949a1.515,1.515,0,0,0-.5-.384,1.46,1.46,0,0,0-.646-.146,1.488,1.488,0,0,0-.634.139,1.579,1.579,0,0,0-.509.37,1.743,1.743,0,0,0-.332.537,1.7,1.7,0,0,0-.122.635,1.758,1.758,0,0,0,.073.5,1.7,1.7,0,0,0,.213.46,1.773,1.773,0,0,0,.331.374,1.446,1.446,0,0,0,.441.254,1.522,1.522,0,0,0,.529.092,1.493,1.493,0,0,0,.634-.138,1.545,1.545,0,0,0,.506-.368,1.778,1.778,0,0,0,.33-.536,1.693,1.693,0,0,0,.006-1.249,1.878,1.878,0,0,0-.318-.541m-.173,1.591a1.346,1.346,0,0,1-.2.387.97.97,0,0,1-.778.382.95.95,0,0,1-.561-.173,1.1,1.1,0,0,1-.373-.447,1.385,1.385,0,0,1-.127-.588,1.362,1.362,0,0,1,.073-.44,1.334,1.334,0,0,1,.205-.386.981.981,0,0,1,.336-.275.97.97,0,0,1,.446-.1.958.958,0,0,1,.433.1.975.975,0,0,1,.333.267,1.315,1.315,0,0,1,.21.385,1.36,1.36,0,0,1,.077.453,1.375,1.375,0,0,1-.072.44m4.689-.258h1.48v-.436h-1.48v-.942h1.711v-.463h-2.233v3.317h2.274v-.463H982.18Zm7.6-.152a1.09,1.09,0,0,0,.178-.61,1.049,1.049,0,0,0-.078-.392,1.22,1.22,0,0,0-.21-.347,1,1,0,0,0-.327-.246.941.941,0,0,0-.412-.093h-1.444v3.317h.522v-1.154h.771l.721,1.154h.589l-.78-1.261a.867.867,0,0,0,.47-.366m-.853.01h-.917v-1.236h.887a.481.481,0,0,1,.37.181.636.636,0,0,1,.16.435.693.693,0,0,1-.141.439.436.436,0,0,1-.358.181m3.1.141h1.481v-.436h-1.481v-.942h1.711v-.463h-2.233v3.317h2.274v-.463h-1.752Zm5.2.8a.961.961,0,0,1-.315.18,1.066,1.066,0,0,1-.334.054.953.953,0,0,1-.55-.17,1.133,1.133,0,0,1-.384-.448,1.349,1.349,0,0,1-.136-.6,1.461,1.461,0,0,1,.042-.347,1.27,1.27,0,0,1,.131-.326,1.167,1.167,0,0,1,.212-.271.925.925,0,0,1,.3-.186,1,1,0,0,1,.374-.07,1.075,1.075,0,0,1,.483.113.759.759,0,0,1,.219.164.914.914,0,0,1,.167.25l.411-.276a1.276,1.276,0,0,0-.5-.526,1.461,1.461,0,0,0-.766-.2,1.608,1.608,0,0,0-.554.095,1.442,1.442,0,0,0-.45.256,1.729,1.729,0,0,0-.327.373,1.64,1.64,0,0,0-.206.449,1.731,1.731,0,0,0-.069.48,1.708,1.708,0,0,0,.119.622,1.907,1.907,0,0,0,.323.549,1.543,1.543,0,0,0,.5.39,1.419,1.419,0,0,0,.638.148,1.7,1.7,0,0,0,.532-.087,1.509,1.509,0,0,0,.486-.267,1.06,1.06,0,0,0,.32-.417l-.436-.246a.847.847,0,0,1-.234.311m4.581-2.131a1.516,1.516,0,0,0-.5-.384,1.46,1.46,0,0,0-.646-.146,1.489,1.489,0,0,0-.634.139,1.582,1.582,0,0,0-.509.37,1.745,1.745,0,0,0-.332.537,1.7,1.7,0,0,0-.122.635,1.768,1.768,0,0,0,.073.5,1.7,1.7,0,0,0,.213.46,1.778,1.778,0,0,0,.331.374,1.446,1.446,0,0,0,.441.254,1.523,1.523,0,0,0,.529.092,1.493,1.493,0,0,0,.634-.138,1.548,1.548,0,0,0,.507-.368,1.783,1.783,0,0,0,.329-.536,1.695,1.695,0,0,0,.006-1.249,1.881,1.881,0,0,0-.318-.541m-.173,1.591a1.347,1.347,0,0,1-.2.387.97.97,0,0,1-.778.382.949.949,0,0,1-.561-.173,1.1,1.1,0,0,1-.373-.447,1.39,1.39,0,0,1-.127-.588,1.357,1.357,0,0,1,.073-.44,1.331,1.331,0,0,1,.205-.386.981.981,0,0,1,.337-.275.97.97,0,0,1,.446-.1.959.959,0,0,1,.433.1.975.975,0,0,1,.333.267,1.317,1.317,0,0,1,.21.385,1.361,1.361,0,0,1,.077.453,1.375,1.375,0,0,1-.072.44m4.394.3-1.88-2.4h-.429v3.317h.523v-2.345l1.854,2.345h.458v-3.312h-.527Zm4.349-.553a.862.862,0,0,0-.23-.175,1.789,1.789,0,0,0-.3-.13q-.155-.051-.374-.1l-.221-.056q-.085-.022-.182-.052a1.144,1.144,0,0,1-.153-.058.913.913,0,0,1-.113-.066.313.313,0,0,1-.086-.081.426.426,0,0,1,.1-.559.808.808,0,0,1,.485-.12,1.349,1.349,0,0,1,.531.11,1.049,1.049,0,0,1,.365.228l.237-.429a1.848,1.848,0,0,0-1.12-.374,1.647,1.647,0,0,0-.477.066,1.161,1.161,0,0,0-.38.192.869.869,0,0,0-.254.318.989.989,0,0,0-.093.432.845.845,0,0,0,.06.332.6.6,0,0,0,.191.243,1.283,1.283,0,0,0,.3.173,3.435,3.435,0,0,0,.434.139l.268.071q.1.027.219.069a1.032,1.032,0,0,1,.185.08.885.885,0,0,1,.127.092.3.3,0,0,1,.087.12.419.419,0,0,1,.025.148.354.354,0,0,1-.168.315.875.875,0,0,1-.478.109,1.694,1.694,0,0,1-.669-.138,1.443,1.443,0,0,1-.469-.286l-.239.449a2.117,2.117,0,0,0,.636.332,2.35,2.35,0,0,0,.733.115,2.092,2.092,0,0,0,.383-.033,1.333,1.333,0,0,0,.333-.107.962.962,0,0,0,.265-.184.784.784,0,0,0,.172-.269.977.977,0,0,0,.063-.358.916.916,0,0,0-.051-.317.733.733,0,0,0-.138-.236m1.343-1.381h1.106v2.854h.529v-2.854h1.1v-.463h-2.737Zm6.407,1.226a1.091,1.091,0,0,0,.178-.61,1.048,1.048,0,0,0-.078-.392,1.22,1.22,0,0,0-.21-.347,1,1,0,0,0-.327-.246.942.942,0,0,0-.412-.093h-1.444v3.317h.522v-1.154h.771l.721,1.154h.589l-.781-1.261a.865.865,0,0,0,.47-.366m-.853.01h-.917v-1.236h.888a.481.481,0,0,1,.37.181.635.635,0,0,1,.16.435.692.692,0,0,1-.141.439.436.436,0,0,1-.358.181m4.865-.018a2.255,2.255,0,0,1-.026.353,1.358,1.358,0,0,1-.093.32.954.954,0,0,1-.167.267.717.717,0,0,1-.259.179,1,1,0,0,1-.72,0,.728.728,0,0,1-.258-.176.941.941,0,0,1-.168-.265,1.356,1.356,0,0,1-.095-.323,2.223,2.223,0,0,1-.027-.357v-1.681h-.525V136.5a2.587,2.587,0,0,0,.047.5,1.788,1.788,0,0,0,.154.452,1.288,1.288,0,0,0,.269.368,1.184,1.184,0,0,0,.407.244,1.58,1.58,0,0,0,.553.091,1.542,1.542,0,0,0,.653-.13,1.122,1.122,0,0,0,.45-.361,1.631,1.631,0,0,0,.249-.525,2.359,2.359,0,0,0,.082-.642v-1.681h-.529Zm4.2.957a.964.964,0,0,1-.315.18,1.066,1.066,0,0,1-.334.054.953.953,0,0,1-.55-.17,1.135,1.135,0,0,1-.384-.448,1.351,1.351,0,0,1-.136-.6,1.448,1.448,0,0,1,.042-.347,1.27,1.27,0,0,1,.131-.326,1.166,1.166,0,0,1,.212-.271.929.929,0,0,1,.3-.186,1,1,0,0,1,.374-.07,1.1,1.1,0,0,1,.245.027,1.086,1.086,0,0,1,.238.085.764.764,0,0,1,.219.164.922.922,0,0,1,.167.25l.411-.276a1.278,1.278,0,0,0-.5-.526,1.459,1.459,0,0,0-.765-.2,1.61,1.61,0,0,0-.554.095,1.444,1.444,0,0,0-.449.256,1.744,1.744,0,0,0-.328.373,1.67,1.67,0,0,0-.207.449,1.739,1.739,0,0,0-.068.48,1.71,1.71,0,0,0,.109.6,1.888,1.888,0,0,0,.3.532,1.606,1.606,0,0,0,.466.394,1.421,1.421,0,0,0,.595.183q.251.164.251.347a.191.191,0,0,1-.075.163.335.335,0,0,1-.206.056.693.693,0,0,1-.331-.1l-.13.276a1.189,1.189,0,0,0,.55.135.55.55,0,0,0,.376-.119.4.4,0,0,0,.135-.319.582.582,0,0,0-.24-.449,1.694,1.694,0,0,0,.682-.252,1.1,1.1,0,0,0,.441-.505l-.436-.246a.849.849,0,0,1-.234.311m3-2.638-1.3,3.317h.557l.347-.9h1.28l.349.9h.552l-1.289-3.317Zm-.3,2.028.55-1.453.534,1.453Zm.02-2.469a.421.421,0,0,1,.027-.073.175.175,0,0,1,.071-.075.234.234,0,0,1,.123-.031.367.367,0,0,1,.175.05q.092.05.2.1a.547.547,0,0,0,.23.05.47.47,0,0,0,.214-.049.481.481,0,0,0,.154-.117.778.778,0,0,0,.1-.149.72.72,0,0,0,.055-.137.37.37,0,0,0,.015-.087h-.294a.163.163,0,0,1,0,.032.223.223,0,0,1-.019.056.246.246,0,0,1-.042.065.22.22,0,0,1-.075.053.264.264,0,0,1-.113.023.4.4,0,0,1-.189-.051c-.064-.034-.131-.068-.2-.1a.5.5,0,0,0-.221-.051.425.425,0,0,0-.2.047.435.435,0,0,0-.144.114.767.767,0,0,0-.091.146.7.7,0,0,0-.051.138.45.45,0,0,0-.014.094h.29a.207.207,0,0,1,.007-.045m6.139,1.49a1.87,1.87,0,0,0-.318-.541,1.512,1.512,0,0,0-.5-.384,1.46,1.46,0,0,0-.645-.146,1.487,1.487,0,0,0-.635.139,1.578,1.578,0,0,0-.508.37,1.746,1.746,0,0,0-.332.537,1.7,1.7,0,0,0-.122.635,1.755,1.755,0,0,0,.073.5,1.692,1.692,0,0,0,.213.46,1.77,1.77,0,0,0,.331.374,1.452,1.452,0,0,0,.442.254,1.525,1.525,0,0,0,.529.092,1.493,1.493,0,0,0,.634-.138,1.545,1.545,0,0,0,.506-.368,1.791,1.791,0,0,0,.33-.536,1.7,1.7,0,0,0,.005-1.249m-.492,1.05a1.338,1.338,0,0,1-.2.387.968.968,0,0,1-.333.277,1,1,0,0,1-1.006-.069,1.1,1.1,0,0,1-.373-.447,1.382,1.382,0,0,1-.127-.588,1.36,1.36,0,0,1,.073-.44,1.326,1.326,0,0,1,.205-.386.986.986,0,0,1,.782-.379.956.956,0,0,1,.432.1.972.972,0,0,1,.333.267,1.306,1.306,0,0,1,.21.385,1.367,1.367,0,0,1,.076.453,1.382,1.382,0,0,1-.072.44" transform="translate(-706.646 -98.536)" fill="#fff"></path>
      <path id="Path_2596" data-name="Path 2596" d="M961.612,2.82h1.137a.826.826,0,0,1-.832.5,1.044,1.044,0,0,1-1.081-1.093A1.058,1.058,0,0,1,961.9,1.1a1.03,1.03,0,0,1,.925.528l.969-.578A2.211,2.211,0,0,0,959.7,2.217a2.189,2.189,0,0,0,2.218,2.205,2.025,2.025,0,0,0,2.05-2.174V1.919h-2.354ZM967.748,0a2.211,2.211,0,1,0,2.2,2.211A2.2,2.2,0,0,0,967.748,0m0,3.255a1,1,0,0,1-1-1.043.992.992,0,1,1,1.981,0,1,1,0,0,1-.981,1.043m5.484-.553L972.251.1h-1.224l1.633,4.224H973.8L975.45.1h-1.224Zm3.7,1.621h3.025V3.292h-1.882V2.665h1.242V1.758h-1.242V1.13h1.882V.1h-3.025Zm8.285-2.851A1.39,1.39,0,0,0,983.759.1h-2.043V4.323h1.124V2.864h.478l.839,1.46h1.261L984.48,2.7a1.362,1.362,0,0,0,.739-1.224m-1.584.429h-.8V1.112h.8a.4.4,0,0,1,.435.4.405.405,0,0,1-.435.391m6.012.429L987.939.1h-.956V4.323h1.124V2.1l1.7,2.224h.963V.1h-1.124ZM994.628,0a2.211,2.211,0,1,0,2.2,2.211A2.2,2.2,0,0,0,994.628,0m0,3.255a1,1,0,0,1-1-1.043.992.992,0,1,1,1.981,0,1,1,0,0,1-.981,1.043m6.639,1.068h1.143V2.783h1.242V1.826h-1.242V1.112h1.882V.1h-3.025Zm4.732,0h3.025V3.292h-1.882V2.665h1.242V1.758h-1.242V1.13h1.882V.1H1006ZM1012.5.1h-1.721V4.323h1.721a2.134,2.134,0,0,0,2.255-2.112A2.134,2.134,0,0,0,1012.5.1m-.056,3.124h-.516V1.2h.516a1.019,1.019,0,1,1,0,2.025m3.95,1.1h3.025V3.292h-1.882V2.665h1.242V1.758h-1.242V1.13h1.882V.1H1016.4Zm8.285-2.851A1.39,1.39,0,0,0,1023.222.1h-2.044V4.323h1.124V2.864h.479l.839,1.46h1.261l-.938-1.628a1.362,1.362,0,0,0,.739-1.224M1023.1,1.9h-.8V1.112h.8a.4.4,0,0,1,.435.4.405.405,0,0,1-.435.391m4.795-1.8-1.764,4.224h1.186l.292-.727h1.671l.3.727h1.18L1028.973.1Zm.124,2.491.422-1.037.422,1.037Zm5.422.646V.1h-1.2V4.323h2.975V3.236Z" transform="translate(-706.46 0)" fill="#fff"></path>
      <path id="Path_2597" data-name="Path 2597" d="M980.657,50l3.765,6.33h3.112V44.363h-6.876Zm9.615-7.431h-2.344V56.327h2.344a6.88,6.88,0,0,0,0-13.761m-4.871,1.4h2.132V34.477H985.4a4.746,4.746,0,0,0,0,9.492m-37.6-9.023V47.517h8.168Zm58.735,13.91h7.3V34.477h-7.3ZM995.855,34.477h-7.927v7.694h7.927Zm18.373,21.85h7.3V49.25h-7.3Zm-7.692,0h7.3V49.25h-7.3Zm-8.989,0h7.3V34.477h-7.3Zm-16.89,0h3.305l-3.305-5.558Zm-36.2-17.585a4.27,4.27,0,0,0-4.265-4.265h-1.584v8.53H940.2a4.27,4.27,0,0,0,4.265-4.265m-13.54,4.265h7.3v-8.53h-7.3Zm0,13.319h7.3V43.4h-7.3ZM940.944,43.4h-2.331V56.327h2.331a6.462,6.462,0,1,0,0-12.925m18.926,10.113L958.2,56.327h3.5Zm.226-.379,2.074,3.191h.6a8.312,8.312,0,0,1,16.619,0h.873V50.105L971.08,34.666ZM962.852,41a6.528,6.528,0,0,0-6.52-6.52h-8.365l8.472,13.039A6.544,6.544,0,0,0,962.852,41m8.227,7.609a7.927,7.927,0,0,0-7.915,7.72H979a7.927,7.927,0,0,0-7.915-7.72m-14.855-.695H947.8v8.415h9.937l1.891-3.18Z" transform="translate(-685.276 -25.379)" fill="#fff"></path>
      <path id="Path_2598" data-name="Path 2598" d="M656.969,55.455V52.394L655.7,54.716h-.4l-1.271-2.323v3.061h-.677v-4.3h.727l1.421,2.627,1.421-2.627h.727v4.3Z" transform="translate(-480.954 -37.659)" fill="#fff"></path>
      <rect id="Rectangle_2386" data-name="Rectangle 2386" width="0.677" height="4.297" transform="translate(178.877 13.499)" fill="#fff"></rect>
      <path id="Path_2599" data-name="Path 2599" d="M689.391,52.417v3.038h-.677v-4.3h.555l2.435,3.106v-3.1h.683v4.291h-.594Z" transform="translate(-506.981 -37.659)" fill="#fff"></path>
      <rect id="Rectangle_2387" data-name="Rectangle 2387" width="0.677" height="4.297" transform="translate(187.583 13.499)" fill="#fff"></rect>
      <path id="Path_2600" data-name="Path 2600" d="M723.333,52.087a1.361,1.361,0,0,0-.473-.3,1.744,1.744,0,0,0-.688-.142,1.05,1.05,0,0,0-.628.155.515.515,0,0,0-.208.439.5.5,0,0,0,.084.285.407.407,0,0,0,.111.105,1.172,1.172,0,0,0,.146.085,1.5,1.5,0,0,0,.2.075q.125.04.235.068l.287.072q.284.068.485.134a2.349,2.349,0,0,1,.387.169,1.113,1.113,0,0,1,.3.227.947.947,0,0,1,.179.306,1.177,1.177,0,0,1,.066.411,1.267,1.267,0,0,1-.081.464,1.007,1.007,0,0,1-.223.349,1.225,1.225,0,0,1-.343.238,1.723,1.723,0,0,1-.431.139,2.721,2.721,0,0,1-.5.043,3.042,3.042,0,0,1-.949-.149,2.741,2.741,0,0,1-.825-.43l.31-.582a1.877,1.877,0,0,0,.607.371,2.2,2.2,0,0,0,.867.179,1.133,1.133,0,0,0,.619-.142.458.458,0,0,0,.217-.408.538.538,0,0,0-.033-.192.385.385,0,0,0-.112-.155,1.146,1.146,0,0,0-.164-.12,1.335,1.335,0,0,0-.239-.1q-.155-.053-.284-.089l-.347-.092a4.394,4.394,0,0,1-.561-.18,1.653,1.653,0,0,1-.392-.225.788.788,0,0,1-.247-.315,1.1,1.1,0,0,1-.077-.43,1.278,1.278,0,0,1,.12-.56,1.132,1.132,0,0,1,.33-.412,1.508,1.508,0,0,1,.494-.248,2.123,2.123,0,0,1,.618-.086,2.394,2.394,0,0,1,1.451.485Z" transform="translate(-530.353 -37.577)" fill="#fff"></path>
      <path id="Path_2601" data-name="Path 2601" d="M742.359,51.758h-1.427v3.7h-.686v-3.7h-1.433v-.6h3.546Z" transform="translate(-543.86 -37.659)" fill="#fff"></path>
      <path id="Path_2602" data-name="Path 2602" d="M761.957,51.394v.6h-2.946V47.7H761.9v.6h-2.216v1.22h1.918v.564h-1.918v1.312Zm-1.2-4.14-.438-.133.346-.665h.636Z" transform="translate(-558.728 -34.198)" fill="#fff"></path>
      <path id="Path_2603" data-name="Path 2603" d="M777.394,55.456v-4.3h1.871a1.219,1.219,0,0,1,.533.121,1.3,1.3,0,0,1,.424.319,1.58,1.58,0,0,1,.272.449,1.358,1.358,0,0,1,.1.508,1.416,1.416,0,0,1-.23.791,1.122,1.122,0,0,1-.609.474l1.01,1.634H780l-.934-1.5h-1v1.5Zm.677-2.1h1.188a.565.565,0,0,0,.464-.235.9.9,0,0,0,.183-.569.823.823,0,0,0-.207-.563.623.623,0,0,0-.479-.235h-1.149Z" transform="translate(-572.26 -37.66)" fill="#fff"></path>
      <rect id="Rectangle_2388" data-name="Rectangle 2388" width="0.677" height="4.297" transform="translate(210.342 13.499)" fill="#fff"></rect>
      <path id="Path_2604" data-name="Path 2604" d="M806.926,53.225a2.2,2.2,0,0,1,.159-.823,2.266,2.266,0,0,1,.43-.7,2.053,2.053,0,0,1,.659-.479,1.926,1.926,0,0,1,.822-.18,1.89,1.89,0,0,1,.836.189,1.964,1.964,0,0,1,.652.5,2.423,2.423,0,0,1,.412.7,2.2,2.2,0,0,1-.007,1.618,2.3,2.3,0,0,1-.427.694,2,2,0,0,1-.656.477,1.933,1.933,0,0,1-.821.179,1.962,1.962,0,0,1-.685-.12,1.868,1.868,0,0,1-.572-.329,2.283,2.283,0,0,1-.428-.485,2.2,2.2,0,0,1-.276-.6,2.291,2.291,0,0,1-.095-.649m2.063,1.566a1.238,1.238,0,0,0,.576-.136A1.252,1.252,0,0,0,810,54.3a1.734,1.734,0,0,0,.261-.5,1.79,1.79,0,0,0-.006-1.157,1.7,1.7,0,0,0-.272-.5,1.258,1.258,0,0,0-.431-.346,1.24,1.24,0,0,0-.56-.129,1.277,1.277,0,0,0-1.014.491,1.7,1.7,0,0,0-.266.5,1.756,1.756,0,0,0-.094.57,1.794,1.794,0,0,0,.164.762,1.429,1.429,0,0,0,.483.579,1.23,1.23,0,0,0,.727.225" transform="translate(-594 -37.577)" fill="#fff"></path>
      <path id="Path_2605" data-name="Path 2605" d="M840.032,55.455v-4.3h1.525a2.362,2.362,0,0,1,.909.167,1.748,1.748,0,0,1,.66.461,2.042,2.042,0,0,1,.392.68,2.52,2.52,0,0,1,.134.835,2.152,2.152,0,0,1-.572,1.565,2.025,2.025,0,0,1-1.523.589Zm1.525-3.7h-.848v3.1h.848a1.384,1.384,0,0,0,.764-.206,1.271,1.271,0,0,0,.48-.554,1.891,1.891,0,0,0,.159-.795,1.632,1.632,0,0,0-.374-1.116,1.3,1.3,0,0,0-1.03-.427" transform="translate(-618.37 -37.659)" fill="#fff"></path>
      <path id="Path_2606" data-name="Path 2606" d="M860.006,53.225a2.207,2.207,0,0,1,.158-.823,2.265,2.265,0,0,1,.43-.7,2.051,2.051,0,0,1,.659-.479,1.922,1.922,0,0,1,.821-.18,1.891,1.891,0,0,1,.836.189,1.963,1.963,0,0,1,.651.5,2.413,2.413,0,0,1,.412.7,2.2,2.2,0,0,1-.007,1.618,2.3,2.3,0,0,1-.427.694,2,2,0,0,1-.656.477,1.934,1.934,0,0,1-.821.179,1.964,1.964,0,0,1-.686-.12,1.87,1.87,0,0,1-.572-.329,2.291,2.291,0,0,1-.429-.485,2.2,2.2,0,0,1-.276-.6,2.282,2.282,0,0,1-.094-.649m2.062,1.566a1.238,1.238,0,0,0,.576-.136,1.252,1.252,0,0,0,.431-.359,1.738,1.738,0,0,0,.261-.5,1.795,1.795,0,0,0-.006-1.157,1.7,1.7,0,0,0-.272-.5,1.259,1.259,0,0,0-.431-.346,1.24,1.24,0,0,0-.56-.129,1.277,1.277,0,0,0-1.013.491,1.725,1.725,0,0,0-.266.5,1.756,1.756,0,0,0-.094.57,1.8,1.8,0,0,0,.164.762,1.433,1.433,0,0,0,.483.579,1.23,1.23,0,0,0,.727.225" transform="translate(-633.073 -37.577)" fill="#fff"></path>
      <path id="Path_2607" data-name="Path 2607" d="M749.636,87.436V88.47h-3.077V84.152h3.023v1.034h-1.838v.609h1.571v.959h-1.571v.683Z" transform="translate(-549.562 -61.946)" fill="#fff"></path>
      <path id="Path_2608" data-name="Path 2608" d="M766.7,85.463l-.072-.042q-.044-.027-.181-.095t-.267-.12a2.408,2.408,0,0,0-.3-.1,1.349,1.349,0,0,0-.32-.043q-.347,0-.347.214a.218.218,0,0,0,.016.086.183.183,0,0,0,.058.071.725.725,0,0,0,.082.056.747.747,0,0,0,.123.054q.083.03.142.048l.181.055.2.061q.261.081.444.158a2.313,2.313,0,0,1,.355.189,1.106,1.106,0,0,1,.276.245,1.037,1.037,0,0,1,.165.322,1.384,1.384,0,0,1,.061.426,1.454,1.454,0,0,1-.1.54,1.117,1.117,0,0,1-.251.394,1.329,1.329,0,0,1-.373.254,1.83,1.83,0,0,1-.444.142,2.664,2.664,0,0,1-.48.042,3.744,3.744,0,0,1-.977-.138,3.656,3.656,0,0,1-.9-.367l.511-1.04c.02.014.047.031.082.052s.106.059.214.113.214.1.319.144a2.828,2.828,0,0,0,.373.114,1.713,1.713,0,0,0,.4.052q.345,0,.345-.19a.2.2,0,0,0-.045-.126.394.394,0,0,0-.148-.1,1.979,1.979,0,0,0-.2-.077c-.064-.021-.155-.049-.273-.083s-.215-.065-.293-.091a2.029,2.029,0,0,1-.839-.47,1.042,1.042,0,0,1-.257-.741,1.466,1.466,0,0,1,.132-.63,1.262,1.262,0,0,1,.356-.46,1.644,1.644,0,0,1,.513-.273,1.94,1.94,0,0,1,.612-.1,3.711,3.711,0,0,1,1.619.466Z" transform="translate(-562.251 -61.847)" fill="#fff"></path>
      <path id="Path_2609" data-name="Path 2609" d="M783.7,88.471V84.152h1.862a1.341,1.341,0,0,1,.582.131,1.427,1.427,0,0,1,.464.341,1.675,1.675,0,0,1,.3.48,1.432,1.432,0,0,1,.11.545,1.539,1.539,0,0,1-.1.558,1.57,1.57,0,0,1-.287.478,1.383,1.383,0,0,1-1.032.46h-.707v1.325Zm1.185-2.361h.627a.263.263,0,0,0,.212-.11.563.563,0,0,0,.088-.35.518.518,0,0,0-.1-.353.3.3,0,0,0-.23-.11h-.6Z" transform="translate(-576.904 -61.947)" fill="#fff"></path>
      <path id="Path_2610" data-name="Path 2610" d="M801.74,86.239a2.105,2.105,0,0,1,.166-.821,2.258,2.258,0,0,1,.454-.7,2.145,2.145,0,0,1,.7-.48,2.2,2.2,0,0,1,.884-.18,2.13,2.13,0,0,1,.891.189,2.056,2.056,0,0,1,.693.5,2.384,2.384,0,0,1,.437.705,2.144,2.144,0,0,1,.159.808,2.1,2.1,0,0,1-.165.817,2.276,2.276,0,0,1-.451.7,2.132,2.132,0,0,1-.7.483,2.19,2.19,0,0,1-.885.181,2.134,2.134,0,0,1-.889-.187,2.068,2.068,0,0,1-.694-.5,2.357,2.357,0,0,1-.44-.706,2.148,2.148,0,0,1-.16-.812m2.195,1.149a.951.951,0,0,0,.441-.1.829.829,0,0,0,.31-.266,1.273,1.273,0,0,0,.175-.365,1.464,1.464,0,0,0,.059-.419,1.407,1.407,0,0,0-.106-.553.947.947,0,0,0-.336-.411.933.933,0,0,0-.551-.162.955.955,0,0,0-.439.1.836.836,0,0,0-.309.261,1.238,1.238,0,0,0-.175.362,1.439,1.439,0,0,0-.059.416,1.456,1.456,0,0,0,.061.423,1.193,1.193,0,0,0,.18.362.838.838,0,0,0,.312.257.977.977,0,0,0,.437.1" transform="translate(-590.182 -61.88)" fill="#fff"></path>
      <path id="Path_2611" data-name="Path 2611" d="M824.853,88.471V84.152h1.984a1.342,1.342,0,0,1,.582.131,1.427,1.427,0,0,1,.463.341,1.662,1.662,0,0,1,.3.48,1.43,1.43,0,0,1,.11.545,1.534,1.534,0,0,1-.165.7,1.422,1.422,0,0,1-.456.532l.912,1.589h-1.3l-.76-1.325h-.481v1.325Zm1.185-2.361h.748a.259.259,0,0,0,.208-.126.553.553,0,0,0,.092-.334.515.515,0,0,0-.1-.336.293.293,0,0,0-.226-.127h-.719Z" transform="translate(-607.196 -61.947)" fill="#fff"></path>
      <path id="Path_2612" data-name="Path 2612" d="M847.487,85.186h-1.239V88.47H845.06V85.186h-1.247V84.152h3.674Z" transform="translate(-621.153 -61.947)" fill="#fff"></path>
      <path id="Path_2613" data-name="Path 2613" d="M867.032,87.436V88.47h-3.077V84.152h3.023v1.034H865.14v.609h1.571v.959H865.14v.683Z" transform="translate(-635.98 -61.946)" fill="#fff"></path>
      <rect id="Rectangle_2389" data-name="Rectangle 2389" width="0.493" height="21.85" transform="translate(157.3 9.114)" fill="#fff"></rect>
      <rect id="Rectangle_2390" data-name="Rectangle 2390" width="0.493" height="21.85" transform="translate(59.452 9.114)" fill="#fff"></rect>
      <path id="Path_2614" data-name="Path 2614" d="M427.505,57.353v-2.77a.371.371,0,0,1,.052-.157c.052-.052.078-.052.157-.052h.418a.371.371,0,0,1,.157.052.191.191,0,0,1,.053.157v2.352h1.934a.371.371,0,0,1,.157.052c.052.052.052.078.052.157v.209a.371.371,0,0,1-.052.157c-.052.052-.078.052-.157.052h-2.561a.371.371,0,0,1-.157-.052c-.052-.026-.052-.1-.052-.157" transform="translate(-314.698 -40.026)" fill="#fff"></path>
      <path id="Path_2615" data-name="Path 2615" d="M439.929,59.171a1.473,1.473,0,0,1,0-1.882,1.595,1.595,0,0,1,1.934-.026,1.165,1.165,0,0,1,.34.915v.131c0,.052,0,.078-.026.1s-.052.026-.1.026H440.4a.685.685,0,0,0,.157.392.615.615,0,0,0,.418.131.568.568,0,0,0,.418-.131.362.362,0,0,1,.261-.131h.34c.052,0,.078,0,.1.026s.026.052.026.1c0,.418-.418.627-1.228.627a1.233,1.233,0,0,1-.967-.288m.418-1.176h1.045c-.026-.34-.183-.523-.523-.523a.493.493,0,0,0-.523.523" transform="translate(-323.593 -41.922)" fill="#fff"></path>
      <path id="Path_2616" data-name="Path 2616" d="M450.979,54.515v-.078a.268.268,0,0,1,.261-.262h.288a.268.268,0,0,1,.261.262v.078a.268.268,0,0,1-.261.261h-.288a.268.268,0,0,1-.261-.261m0,2.744V55.142c0-.052,0-.078.026-.1s.052-.026.1-.026h.5c.052,0,.078,0,.1.026s.026.052.026.1v2.117c0,.052,0,.078-.026.1s-.052.026-.1.026h-.5c-.052,0-.078,0-.1-.026s-.026-.052-.026-.1" transform="translate(-331.978 -39.88)" fill="#fff"></path>
      <path id="Path_2617" data-name="Path 2617" d="M462.576,57.588a.994.994,0,0,1-.784-.34,1.568,1.568,0,0,1,0-1.882,1.166,1.166,0,0,1,.862-.313,2.235,2.235,0,0,1,.654.1V54.5c0-.052,0-.078.026-.1s.052-.026.1-.026h.5c.052,0,.078,0,.1.026s.026.053.026.1v2.927a.157.157,0,0,1-.026.1c-.026.026-.052.026-.1.026h-.418c-.052,0-.078,0-.1-.026s-.026-.052-.026-.1v-.078a1.351,1.351,0,0,1-.81.235m-.157-1.8a1.219,1.219,0,0,0,0,1.1.457.457,0,0,0,.366.183,1.292,1.292,0,0,0,.575-.209V55.68a1.759,1.759,0,0,0-.47-.078c-.235,0-.392.052-.471.183" transform="translate(-339.706 -40.025)" fill="#fff"></path>
      <path id="Path_2618" data-name="Path 2618" d="M473.308,59.171a1.473,1.473,0,0,1,0-1.882,1.595,1.595,0,0,1,1.934-.026,1.165,1.165,0,0,1,.34.915v.131c0,.052,0,.078-.026.1s-.052.026-.1.026h-1.673a.686.686,0,0,0,.157.392.614.614,0,0,0,.418.131.568.568,0,0,0,.418-.131.362.362,0,0,1,.261-.131h.34c.052,0,.078,0,.1.026s.026.052.026.1c0,.418-.418.627-1.228.627a1.267,1.267,0,0,1-.967-.288m.444-1.176H474.8c-.026-.34-.183-.523-.523-.523s-.5.183-.523.523" transform="translate(-348.164 -41.922)" fill="#fff"></path>
      <path id="Path_2619" data-name="Path 2619" d="M427.9,93.9v-2.77a.371.371,0,0,1,.052-.157c.026-.052.078-.052.157-.052h2.561a.371.371,0,0,1,.157.052c.052.052.052.078.052.157v.209a.372.372,0,0,1-.052.157c-.052.052-.078.052-.157.052h-1.934V92.2h1.673a.371.371,0,0,1,.157.052c.052.052.052.078.052.157v.209a.371.371,0,0,1-.052.157c-.052.052-.078.052-.157.052h-1.673v.653h1.934a.371.371,0,0,1,.157.052c.052.052.052.078.052.157V93.9a.371.371,0,0,1-.052.157c-.052.052-.078.052-.157.052h-2.535a.372.372,0,0,1-.157-.052.226.226,0,0,1-.078-.157" transform="translate(-314.989 -66.931)" fill="#fff"></path>
      <path id="Path_2620" data-name="Path 2620" d="M440.183,94.329c0-.47.392-.732,1.15-.732.81,0,1.228.209,1.228.627a.157.157,0,0,1-.026.1c-.026.026-.052.026-.1.026h-.34a.321.321,0,0,1-.261-.131.568.568,0,0,0-.418-.131c-.287,0-.444.078-.444.209,0,.078.053.131.183.157a1.624,1.624,0,0,0,.418.1,3.48,3.48,0,0,1,.5.131,1.089,1.089,0,0,1,.418.235.617.617,0,0,1,.183.418c0,.47-.418.732-1.229.732s-1.228-.209-1.228-.627c0-.052,0-.078.026-.1s.052-.026.1-.026h.34a.322.322,0,0,1,.261.131.569.569,0,0,0,.418.131c.34,0,.523-.078.523-.209,0-.078-.052-.131-.183-.157a4.067,4.067,0,0,0-.418-.131,3.483,3.483,0,0,1-.5-.131,1.093,1.093,0,0,1-.418-.235.44.44,0,0,1-.183-.392" transform="translate(-324.03 -68.899)" fill="#fff"></path>
      <path id="Path_2621" data-name="Path 2621" d="M450.979,96.707V93.78c0-.052,0-.078.026-.1s.052-.026.1-.026h.418a.157.157,0,0,1,.1.026c.026.026.026.052.026.1v.078a1.426,1.426,0,0,1,.81-.261.994.994,0,0,1,.784.34,1.569,1.569,0,0,1,0,1.882,1.166,1.166,0,0,1-.863.313,2.234,2.234,0,0,1-.653-.1v.679c0,.052,0,.078-.026.1s-.052.026-.1.026h-.5a.157.157,0,0,1-.1-.026c0-.026-.026-.078-.026-.1m.784-1.2a1.754,1.754,0,0,0,.47.078.508.508,0,0,0,.444-.183,1.219,1.219,0,0,0,0-1.1.458.458,0,0,0-.366-.183,1.114,1.114,0,0,0-.549.209Z" transform="translate(-331.978 -68.899)" fill="#fff"></path>
      <path id="Path_2622" data-name="Path 2622" d="M462.313,95.891a1.473,1.473,0,0,1,0-1.882,1.73,1.73,0,0,1,1.986,0,1.474,1.474,0,0,1,0,1.882,1.73,1.73,0,0,1-1.986,0m.549-1.542a.9.9,0,0,0-.131.575,1.1,1.1,0,0,0,.131.575.631.631,0,0,0,.889,0,.9.9,0,0,0,.131-.575,1.1,1.1,0,0,0-.131-.575.507.507,0,0,0-.444-.183.585.585,0,0,0-.444.183" transform="translate(-340.071 -68.972)" fill="#fff"></path>
      <path id="Path_2623" data-name="Path 2623" d="M475.433,94.125l-.34-.026a.722.722,0,0,0-.575.34V95.85c0,.052,0,.078-.026.1s-.052.026-.1.026h-.5c-.052,0-.078,0-.1-.026s-.026-.052-.026-.1V93.681c0-.052,0-.078.026-.1s.052-.026.1-.026h.5c.052,0,.078,0,.1.026s.026.052.026.1v.131a1.834,1.834,0,0,1,.444-.235,1.527,1.527,0,0,1,.549-.078c.052,0,.078,0,.1.026s.026.052.026.1v.34c0,.052,0,.078-.026.1s-.052.026-.1.026Z" transform="translate(-348.747 -68.826)" fill="#fff"></path>
      <path id="Path_2624" data-name="Path 2624" d="M483.157,93.713l.314-.026h.078c.052,0,.078,0,.1.026s.026.052.026.1v.235a.1.1,0,0,1-.026.078.136.136,0,0,1-.1.052,3.414,3.414,0,0,1-.6.052.877.877,0,0,1-.967-.993V91.152c0-.052,0-.078.026-.1s.052-.026.1-.026h.5a.157.157,0,0,1,.1.026c.026.026.026.052.026.1v.732h.627a.158.158,0,0,1,.1.026c.026.026.026.052.026.1v.261c0,.052,0,.079-.026.1s-.052.026-.1.026h-.627v.836a.444.444,0,0,0,.1.34.544.544,0,0,0,.314.131" transform="translate(-354.799 -67.003)" fill="#fff"></path>
      <path id="Path_2625" data-name="Path 2625" d="M489.552,95.72a1.473,1.473,0,0,1,0-1.882,1.595,1.595,0,0,1,1.934-.026,1.165,1.165,0,0,1,.34.915v.131c0,.052,0,.078-.026.1s-.052.026-.1.026H490a.684.684,0,0,0,.157.392.613.613,0,0,0,.418.131.567.567,0,0,0,.418-.131.363.363,0,0,1,.261-.131h.34c.052,0,.078,0,.1.026s.026.052.026.1c0,.418-.418.628-1.228.628a1.064,1.064,0,0,1-.941-.288M490,94.57h1.045c-.026-.34-.183-.523-.523-.523-.34-.026-.5.157-.523.523" transform="translate(-360.122 -68.826)" fill="#fff"></path>
      <path id="Path_2626" data-name="Path 2626" d="M428,75.407v-2.8a.371.371,0,0,1,.052-.157c.052-.052.078-.052.157-.052h.418a.371.371,0,0,1,.157.052c.052.052.052.078.052.157v2.77a.372.372,0,0,1-.052.157.192.192,0,0,1-.157.052h-.418a.371.371,0,0,1-.157-.052c-.052-.026-.052-.078-.052-.131" transform="translate(-315.062 -53.296)" fill="#fff"></path>
      <path id="Path_2627" data-name="Path 2627" d="M433.448,77.427V75.258c0-.052,0-.078.026-.1s.052-.026.1-.026h.5a.157.157,0,0,1,.1.026c.026.026.026.052.026.1v.131a1.268,1.268,0,0,1,.81-.313.946.946,0,0,1,.706.261,1.083,1.083,0,0,1,.262.81v1.281a.157.157,0,0,1-.026.1c-.026.026-.053.026-.1.026h-.5a.157.157,0,0,1-.1-.026c-.026-.026-.026-.052-.026-.1V76.147c0-.366-.131-.523-.418-.523a.9.9,0,0,0-.6.313v1.49a.157.157,0,0,1-.026.1c-.026.026-.052.026-.1.026h-.5a.157.157,0,0,1-.1-.026c0-.026-.026-.052-.026-.1" transform="translate(-319.073 -55.265)" fill="#fff"></path>
      <path id="Path_2628" data-name="Path 2628" d="M446.145,77.682a1.388,1.388,0,0,1-.967-.314,1.473,1.473,0,0,1,0-1.882,1.39,1.39,0,0,1,.967-.314,2.132,2.132,0,0,1,.941.183.649.649,0,0,1,.34.575c0,.052,0,.078-.026.1s-.052.026-.1.026h-.34a.318.318,0,0,1-.261-.157.51.51,0,0,0-.47-.209.528.528,0,0,0-.47.183,1.218,1.218,0,0,0,0,1.1.606.606,0,0,0,.47.183.51.51,0,0,0,.47-.209.318.318,0,0,1,.261-.157h.34c.052,0,.078,0,.1.026s.026.053.026.1a.6.6,0,0,1-.34.575,1.882,1.882,0,0,1-.941.183" transform="translate(-327.457 -55.337)" fill="#fff"></path>
      <path id="Path_2629" data-name="Path 2629" d="M455.876,77.3a1.473,1.473,0,0,1,0-1.882,1.595,1.595,0,0,1,1.934-.026,1.165,1.165,0,0,1,.34.915v.131c0,.052,0,.078-.026.1s-.052.026-.1.026h-1.7a.686.686,0,0,0,.157.392.614.614,0,0,0,.418.131.568.568,0,0,0,.418-.131.362.362,0,0,1,.261-.131h.34c.052,0,.078,0,.1.026s.026.052.026.1c0,.418-.418.627-1.228.627a1.2,1.2,0,0,1-.941-.288m.418-1.176h1.045c-.026-.34-.183-.523-.523-.523-.314,0-.5.157-.523.523" transform="translate(-335.332 -55.265)" fill="#fff"></path>
      <path id="Path_2630" data-name="Path 2630" d="M466.926,77.427V75.258c0-.052,0-.078.026-.1s.052-.026.1-.026h.5a.157.157,0,0,1,.1.026c.026.026.026.052.026.1v.131a1.268,1.268,0,0,1,.81-.313.946.946,0,0,1,.706.261,1.083,1.083,0,0,1,.262.81v1.281a.157.157,0,0,1-.026.1c-.026.026-.052.026-.1.026h-.5a.157.157,0,0,1-.1-.026c-.026-.026-.026-.052-.026-.1V76.147c0-.366-.131-.523-.418-.523a.9.9,0,0,0-.6.313v1.49a.157.157,0,0,1-.026.1c-.026.026-.052.026-.1.026h-.5a.157.157,0,0,1-.1-.026c-.026-.026-.026-.052-.026-.1" transform="translate(-343.717 -55.265)" fill="#fff"></path>
      <path id="Path_2631" data-name="Path 2631" d="M479.789,75.192l.314-.026h.078c.052,0,.078,0,.1.026s.026.052.026.1v.235a.1.1,0,0,1-.026.078.136.136,0,0,1-.1.052,3.413,3.413,0,0,1-.6.052.877.877,0,0,1-.967-.993V72.631c0-.052,0-.078.026-.1s.052-.026.1-.026h.5a.157.157,0,0,1,.1.026c.026.026.026.052.026.1v.732H480a.158.158,0,0,1,.1.026c.026.026.026.052.026.1v.261c0,.052,0,.079-.026.1s-.052.026-.1.026h-.627v.81a.444.444,0,0,0,.1.34.453.453,0,0,0,.314.157" transform="translate(-352.32 -53.369)" fill="#fff"></path>
      <path id="Path_2632" data-name="Path 2632" d="M486.438,72.542v-.078a.268.268,0,0,1,.261-.261h.288a.268.268,0,0,1,.261.261v.078a.268.268,0,0,1-.261.261H486.7a.237.237,0,0,1-.183-.078.2.2,0,0,1-.078-.183m.026,2.77V73.2c0-.052,0-.078.026-.1s.052-.026.1-.026h.5c.052,0,.078,0,.1.026s.026.052.026.1v2.117c0,.052,0,.078-.026.1s-.052.026-.1.026h-.5c-.052,0-.078,0-.1-.026s-.026-.052-.026-.1" transform="translate(-358.08 -53.15)" fill="#fff"></path>
      <path id="Path_2633" data-name="Path 2633" d="M490.583,75.273H491a.484.484,0,0,1,.183.052.315.315,0,0,1,.131.131l.6,1.385.6-1.385a.214.214,0,0,1,.131-.131.377.377,0,0,1,.183-.052h.418a.136.136,0,0,1,.1.052v.052a.1.1,0,0,1-.026.078l-.967,2.039a.315.315,0,0,1-.131.131.377.377,0,0,1-.183.052h-.34a.484.484,0,0,1-.183-.052.317.317,0,0,1-.131-.131l-.967-2.039a.1.1,0,0,1-.026-.078c.078-.052.1-.1.183-.1" transform="translate(-360.997 -55.41)" fill="#fff"></path>
      <path id="Path_2634" data-name="Path 2634" d="M502.526,77.369a1.473,1.473,0,0,1,0-1.882,1.73,1.73,0,0,1,1.986,0,1.473,1.473,0,0,1,0,1.882,1.73,1.73,0,0,1-1.986,0m.575-1.516a.9.9,0,0,0-.131.575A1.1,1.1,0,0,0,503.1,77a.631.631,0,0,0,.889,0,.9.9,0,0,0,.131-.575,1.1,1.1,0,0,0-.131-.575.508.508,0,0,0-.444-.183.478.478,0,0,0-.444.183" transform="translate(-369.672 -55.338)" fill="#fff"></path>
      <path id="Path_2635" data-name="Path 2635" d="M519.808,77.4a.633.633,0,0,1-.287-.575.7.7,0,0,1,.287-.575,1.364,1.364,0,0,1,.758-.209h.732a.473.473,0,0,0-.1-.366.714.714,0,0,0-.784.026.363.363,0,0,1-.261.131h-.34c-.052,0-.078,0-.1-.026s-.026-.052-.026-.1c0-.418.392-.627,1.2-.627a1.463,1.463,0,0,1,.863.235.784.784,0,0,1,.313.732v1.385c0,.053,0,.079-.026.1s-.052.026-.1.026h-.418c-.052,0-.078,0-.1-.026s-.026-.052-.026-.1v-.078a1.425,1.425,0,0,1-.81.261,1.136,1.136,0,0,1-.758-.209m.549-.758a.258.258,0,0,0,.026.392.39.39,0,0,0,.262.078,1.208,1.208,0,0,0,.653-.209v-.34h-.68a.441.441,0,0,0-.261.078" transform="translate(-382.433 -55.265)" fill="#fff"></path>
      <path id="Path_2636" data-name="Path 2636" d="M531.052,77.369a1.472,1.472,0,0,1,0-1.882,1.46,1.46,0,0,1,.993-.313,1.416,1.416,0,0,1,.993.313,1.474,1.474,0,0,1,0,1.882,1.73,1.73,0,0,1-1.987,0m.575-1.516a.9.9,0,0,0-.131.575,1.1,1.1,0,0,0,.131.575.631.631,0,0,0,.889,0,.9.9,0,0,0,.131-.575,1.1,1.1,0,0,0-.131-.575.508.508,0,0,0-.444-.183.478.478,0,0,0-.444.183" transform="translate(-390.671 -55.338)" fill="#fff"></path>
      <path id="Path_2637" data-name="Path 2637" d="M280.221,106.183s17.067-8.782,32.487,0c0,0-13.8-7-32.487,0" transform="translate(-206.278 -75.291)" fill="#fff"></path>
      <path id="Path_2638" data-name="Path 2638" d="M385.509,65.071a5.209,5.209,0,0,1,.235,6.769s1.908-.941,1.464-3.764a3.242,3.242,0,0,0-1.7-3.006" transform="translate(-283.783 -47.9)" fill="#fff"></path>
      <path id="Path_2639" data-name="Path 2639" d="M375.208,68.022s.993-2.953,3.215-3.842a4.654,4.654,0,0,0-3.215,3.842" transform="translate(-276.201 -47.245)" fill="#fff"></path>
      <path id="Path_2640" data-name="Path 2640" d="M382.577,46.648a1.228,1.228,0,1,1-1.228,1.228,1.228,1.228,0,0,1,1.228-1.228" transform="translate(-280.721 -34.339)" fill="#fff"></path>
      <path id="Path_2641" data-name="Path 2641" d="M375.049,61.342a3.75,3.75,0,0,1,1.934,3.581,4.031,4.031,0,0,1-1.045,2.9c-.915,1.045-2.535,1.856-4.312-.392,0,0-.235,1.934,2.222,2.248a4,4,0,0,0,3.189-1.124,5.559,5.559,0,0,0,1.777-5.907,5.881,5.881,0,0,0-1.385-2.431Z" transform="translate(-273.559 -44.328)" fill="#fff"></path>
      <path id="Path_2642" data-name="Path 2642" d="M374.754,52.273s-1.124-3.267,2.535-5.018a6.9,6.9,0,0,1,1.228-.444c.967-.261,3.685-1.281,3.5-4.025,0,0,1.8,3.241-1.516,4.861a6.8,6.8,0,0,1-1.228.418c-.836.157-2.927.758-3.711,2.274a5,5,0,0,0-.81,1.934" transform="translate(-275.747 -31.496)" fill="#fff"></path>
      <path id="Path_2643" data-name="Path 2643" d="M392.838,46.5a5.005,5.005,0,0,0,2.614-3.711,3.486,3.486,0,0,1-2.614,3.711" transform="translate(-289.179 -31.495)" fill="#fff"></path>
      <path id="Path_2644" data-name="Path 2644" d="M395.81,89.14s1.594,1.751.679,6.508c.026,0,1.647-4.7-.679-6.508" transform="translate(-291.366 -65.618)" fill="#fff"></path>
      <path id="Path_2645" data-name="Path 2645" d="M397.483,83.111a2.95,2.95,0,0,0-.627-1.2,4.577,4.577,0,0,1-1.045,1.908c2.248,2.117.679,6.508.679,6.508,1.908-3.685,1.464-5.671.993-7.214" transform="translate(-291.366 -60.295)" fill="#fff"></path>
      <path id="Path_2646" data-name="Path 2646" d="M299.931,57.741s.209,1.751,1.072,1.019c0,0-.262.627-.81.026a.9.9,0,0,1-.209-.627Z" transform="translate(-220.787 -42.505)" fill="#fff"></path>
      <path id="Path_2647" data-name="Path 2647" d="M286.065,92.569s1.516-2.666.679-7.292l.1.183s1.045,4-.784,7.109" transform="translate(-210.58 -62.775)" fill="#fff"></path>
      <path id="Path_2648" data-name="Path 2648" d="M299.666,63.419a.611.611,0,0,0,.6.34.551.551,0,0,1-.732-.392v-.078l.078.052Z" transform="translate(-220.496 -46.588)" fill="#fff"></path>
      <path id="Path_2649" data-name="Path 2649" d="M284.886,57.521a2.969,2.969,0,0,0-.706-1.464s-3.711,3.006-.183,6.978a31.31,31.31,0,0,0,6.534,5.959c-.026,0-8.416-6.456-5.645-11.474" transform="translate(-207.937 -41.265)" fill="#fff"></path>
      <path id="Path_2650" data-name="Path 2650" d="M285.469,41.9l-.863.863s-1.1-2.431,2.326-5.619c0,.026-2.4,3.215-1.464,4.757" transform="translate(-209.383 -27.339)" fill="#fff"></path>
      <path id="Path_2651" data-name="Path 2651" d="M285.359,80.9l-1.176-1.568s1.359,6.8.5,8.86c0,0,1.516-2.4.68-7.292" transform="translate(-209.195 -58.4)" fill="#fff"></path>
      <path id="Path_2652" data-name="Path 2652" d="M297.717,56.361s.131,0,.157-.1c.157.052.418.287.418.392.078.261.026.47.131.784.1.34.68.758.967.131-.131.5-.653.993-1.176.6a.552.552,0,0,0,.706.392c-.68.34-1.124-.523-1.176-.758-.183-.5.366-1.15-.026-1.438" transform="translate(-219.149 -41.412)" fill="#fff"></path>
      <path id="Path_2653" data-name="Path 2653" d="M297.32,55.5s-.026.157-.157.131l-.1-.1s.052-.157.157-.157a1.024,1.024,0,0,1,.1.131" transform="translate(-218.673 -40.756)" fill="#fff"></path>
      <path id="Path_2654" data-name="Path 2654" d="M289.128,37.239s-2.065,3.267-1.464,4.757c0-.026-1.124-1.281,1.464-4.757" transform="translate(-211.579 -27.413)" fill="#fff"></path>
      <path id="Path_2655" data-name="Path 2655" d="M289.945,61.6s-2.117,2.64,1.62,7.4a19.784,19.784,0,0,0,4,4.051c0,.026-7.266-5.567-5.619-11.448" transform="translate(-212.996 -45.348)" fill="#fff"></path>
      <path id="Path_2656" data-name="Path 2656" d="M291.77,51.6c-.131.209-.6.131-1.072-.157a1.358,1.358,0,0,1-.653-.732,1.016,1.016,0,1,0,1.725.889h0" transform="translate(-213.279 -37.328)" fill="#fff"></path>
      <path id="Path_2657" data-name="Path 2657" d="M324.733,78.936a3.625,3.625,0,0,0-2.744-3.267h-.81a2.58,2.58,0,0,0-.628.078,3.219,3.219,0,0,1,.262,6.43,3.155,3.155,0,0,1-1.908-.47,1.142,1.142,0,0,0,.34.366,4.293,4.293,0,0,1,.5.235.97.97,0,0,1,.418.366,3.779,3.779,0,0,0,1.228.131,3.659,3.659,0,0,0,3.345-3.868" transform="translate(-234.754 -55.702)" fill="#fff"></path>
      <path id="Path_2658" data-name="Path 2658" d="M318.424,82.207a3.209,3.209,0,0,0-.444-6.4,3.334,3.334,0,0,0-.706.131,3.678,3.678,0,0,1,1.2-.288,3.614,3.614,0,1,1,.47,7.214,3.665,3.665,0,0,1-3.607-2.4,3.263,3.263,0,0,0,3.084,1.751" transform="translate(-232.13 -55.68)" fill="#fff"></path>
      <path id="Path_2659" data-name="Path 2659" d="M321.092,84.16a1.964,1.964,0,0,0,2.352-1.49,1.989,1.989,0,0,0-1.7-2.222.235.235,0,0,1-.131-.026,1.728,1.728,0,0,1,.366.026,1.964,1.964,0,1,1-.68,3.868,1.768,1.768,0,0,1-.81-.366,1.8,1.8,0,0,0,.6.209" transform="translate(-235.922 -59.202)" fill="#fff"></path>
      <path id="Path_2660" data-name="Path 2660" d="M313.329,54.5s-.915-3.11,3.372-4.365c0,0,3.659-.575,3.633-3.293a2.778,2.778,0,0,1-1.725,4,6.828,6.828,0,0,1-1.045.288,5.442,5.442,0,0,0-3.424,1.829,4.011,4.011,0,0,0-.81,1.542" transform="translate(-230.589 -34.485)" fill="#fff"></path>
      <path id="Path_2661" data-name="Path 2661" d="M322.629,64.765a2.169,2.169,0,0,1-.157,2.274,3.951,3.951,0,0,1,3.241-.183c.026,0,.993-4.6-3.084-2.091" transform="translate(-237.38 -47.124)" fill="#fff"></path>
      <path id="Path_2662" data-name="Path 2662" d="M330.494,49.853a4.487,4.487,0,0,0,2.535-3.006,3.044,3.044,0,0,1-2.535,3.006" transform="translate(-243.285 -34.485)" fill="#fff"></path>
      <path id="Path_2663" data-name="Path 2663" d="M313.557,67.263a6.1,6.1,0,0,1,3.084-3.084,4.253,4.253,0,0,0-3.084,3.084" transform="translate(-230.818 -47.244)" fill="#fff"></path>
      <path id="Path_2664" data-name="Path 2664" d="M323.57,49.322a1.1,1.1,0,1,1-1.1,1.1,1.1,1.1,0,0,1,1.1-1.1" transform="translate(-237.38 -36.307)" fill="#fff"></path>
      <path id="Path_2665" data-name="Path 2665" d="M358.741,42.289a1.148,1.148,0,0,0-.471-2.248,1.183,1.183,0,0,0-.862,1.385,1.116,1.116,0,0,0,1.333.863" transform="translate(-263.079 -29.457)" fill="#fff"></path>
      <path id="Path_2666" data-name="Path 2666" d="M359.558,61.46a.562.562,0,1,0,.575-.549.575.575,0,0,0-.575.549m1.045.052a.474.474,0,0,1-.5.47.484.484,0,0,1,.026-.967.475.475,0,0,1,.471.5" transform="translate(-264.68 -44.838)" fill="#fff"></path>
      <path id="Path_2667" data-name="Path 2667" d="M351.3,36.776a5.5,5.5,0,0,1-.6,1.045c-3.554,3.188-6.194-1.15-6.325-1.385a8.354,8.354,0,0,1-.706-2.169,9.375,9.375,0,0,0,0,2.588,4.14,4.14,0,0,0,2.457,3.215.371.371,0,0,0,.157.052c.026.052.026.078.052.131a7.312,7.312,0,0,1,.314,2.378c-.549,4.809-4.13,9.226-4.13,9.226a12,12,0,0,0,5.227-5.724,28.515,28.515,0,0,1,.131,6.22s2.013-3.607.836-12.023c2.431-.575,2.588-3.554,2.588-3.554M347.88,41.3a.661.661,0,0,1,.34.6.641.641,0,1,1-.915-.6,2.612,2.612,0,0,1-.81-2.64l.444.131a2.659,2.659,0,0,0,.575,2.431h.209a3.5,3.5,0,0,0,.81-2.248l.523-.1A4.434,4.434,0,0,1,347.88,41.3" transform="translate(-252.14 -25.225)" fill="#fff"></path>
      <path id="Path_2668" data-name="Path 2668" d="M306.555,66.009l-1.176-1.542.052-.287.078.026,1.124,1.594s.052.183-.078.209" transform="translate(-224.798 -47.245)" fill="#fff"></path>
      <path id="Path_2669" data-name="Path 2669" d="M304.488,65.9v-.183l.157-.052,1.307,1.411s-.026.1-.157.026-1.307-1.2-1.307-1.2" transform="translate(-224.142 -48.338)" fill="#fff"></path>
      <path id="Path_2670" data-name="Path 2670" d="M303,66.672l.183-.314,1.516,1.255Z" transform="translate(-223.048 -48.848)" fill="#fff"></path>
      <path id="Path_2671" data-name="Path 2671" d="M299.477,69.88a7.767,7.767,0,0,1-1.725-.47,6.576,6.576,0,0,1,1.2-1.96l1.856.941Z" transform="translate(-219.183 -49.651)" fill="#fff"></path>
      <path id="Path_2672" data-name="Path 2672" d="M293.446,65.046a2.665,2.665,0,0,1-.758-1.019,2.893,2.893,0,0,0-.967-1.333,1.657,1.657,0,0,0-.209.81v.026a4.076,4.076,0,0,0,1.594,2.222,5.349,5.349,0,0,1,.34-.706" transform="translate(-214.59 -46.151)" fill="#fff"></path>
      <path id="Path_2673" data-name="Path 2673" d="M305.795,70.6l-1.307,1.49a.368.368,0,0,0,.131.078c.052,0,1.333-1.411,1.333-1.411a.2.2,0,0,0,.052-.34c-.026-.026-.026.235-.209.183" transform="translate(-224.142 -51.833)" fill="#fff"></path>
      <path id="Path_2674" data-name="Path 2674" d="M299.765,63.221a.611.611,0,0,0,.6.34.551.551,0,0,1-.732-.392V63.09l.078.052Z" transform="translate(-220.569 -46.442)" fill="#fff"></path>
      <path id="Path_2675" data-name="Path 2675" d="M297.816,56.063s.131,0,.157-.1c.157.052.418.287.418.392.078.261.026.47.131.784.1.34.68.758.967.131-.131.5-.653.993-1.176.6a.552.552,0,0,0,.706.392c-.68.34-1.124-.523-1.176-.758-.183-.47.366-1.124-.026-1.438" transform="translate(-219.221 -41.193)" fill="#fff"></path>
      <path id="Path_2676" data-name="Path 2676" d="M297.42,55.3s-.026.157-.157.131l-.1-.1s.052-.157.157-.157a.281.281,0,0,1,.1.131" transform="translate(-218.747 -40.61)" fill="#fff"></path>
      <path id="Path_2677" data-name="Path 2677" d="M290.3,45.341l1.8.314a.265.265,0,0,1,.183.1l1.1,1.437c.026.026,0,.079-.026.052l-1.856-.313a.264.264,0,0,1-.183-.1l-1.1-1.438c.026-.026.052-.078.078-.052" transform="translate(-213.642 -33.372)" fill="#fff"></path>
      <path id="Path_2678" data-name="Path 2678" d="M292.047,49.095a.264.264,0,0,1-.183-.1l-.575-.758-.235.366-.026.026c-.131.209.157.6.627.889s.941.366,1.072.157v-.026l.235-.366Z" transform="translate(-214.21 -35.505)" fill="#fff"></path>
      <path id="Path_2679" data-name="Path 2679" d="M291.869,51.4c-.131.209-.6.131-1.072-.157a1.358,1.358,0,0,1-.653-.732,1.016,1.016,0,1,0,1.725.889h0" transform="translate(-213.352 -37.182)" fill="#fff"></path>
      <path id="Path_2680" data-name="Path 2680" d="M504.663,95.348h2.483V93.6h-2.483Zm1.228-.183-1.072-.706,1.072-.706,1.072.706Z" transform="translate(-371.496 -68.899)" fill="#fff"></path>
      <path id="Path_2681" data-name="Path 2681" d="M507.87,96.766a.716.716,0,0,0-.235.026.458.458,0,0,0,.444.444.428.428,0,0,0,.392-.261.882.882,0,0,0-.6-.209m-.1.209h0l-.026-.026Zm.131.131h0l-.026-.026Zm0-.209h0l-.026-.026.026.026v0Zm.314.261h0v0Zm.078,0h0v0Z" transform="translate(-373.684 -71.232)" fill="#fff"></path>
      <path id="Path_2682" data-name="Path 2682" d="M508.078,95.181a.472.472,0,0,0-.444.366.723.723,0,0,1,.235-.026.953.953,0,0,1,.6.235c0-.052.026-.078.026-.131a.391.391,0,0,0-.418-.444" transform="translate(-373.683 -70.065)" fill="#fff"></path>
      <path id="Path_2683" data-name="Path 2683" d="M510.9,97.6h0" transform="translate(-376.089 -71.834)" fill="#fff"></path>
      <path id="Path_2684" data-name="Path 2684" d="M507.832,96.635h0c0,.026,0,.026.026.026h.026v-.026c-.026,0-.026-.026-.052,0m0,.026h0v-.026c.026,0,.026,0,0,.026.026-.026.026,0,0,0h0" transform="translate(-373.829 -71.127)" fill="#fff"></path>
      <path id="Path_2685" data-name="Path 2685" d="M508.03,96.62h0l.026-.026h-.026Zm0-.052h0c.026,0,.026.026,0,0h0" transform="translate(-373.974 -71.086)" fill="#fff"></path>
      <path id="Path_2686" data-name="Path 2686" d="M508.182,96.62h0c.026-.026.026-.026,0-.026h-.052Zm-.026-.052h0c.026,0,.026.026,0,0h0l.026.026Z" transform="translate(-374.048 -71.086)" fill="#fff"></path>
      <path id="Path_2687" data-name="Path 2687" d="M508.427,96.62v-.052h0v.026h.026Z" transform="translate(-374.266 -71.086)" fill="#fff"></path>
      <path id="Path_2688" data-name="Path 2688" d="M508.625,96.521v0l.026-.052V96.5l-.026.026v0Z" transform="translate(-374.412 -71.014)" fill="#fff"></path>
      <path id="Path_2689" data-name="Path 2689" d="M509.021,96.62v-.052h.026v.026l-.026-.026v.026h0v.026h0Z" transform="translate(-374.704 -71.086)" fill="#fff"></path>
      <path id="Path_2690" data-name="Path 2690" d="M509.417,96.693h0c.026,0,.026,0,.026-.026h-.026Zm0,0h0c0-.026.026-.026,0,0h0" transform="translate(-374.995 -71.159)" fill="#fff"></path>
      <path id="Path_2691" data-name="Path 2691" d="M509.516,96.81Z" transform="translate(-375.068 -71.25)" fill="#fff"></path>
      <path id="Path_2692" data-name="Path 2692" d="M509.714,96.766h0c0,.026,0,.026.026.026v-.026h-.026m0,.026h0l.026-.026c0,.026,0,.026-.026.026h0" transform="translate(-375.214 -71.232)" fill="#fff"></path>
      <path id="Path_2693" data-name="Path 2693" d="M509.938,96.865h0c.026,0,.026.026,0,0h0l-.026.026.026-.026v0h0" transform="translate(-375.36 -71.305)" fill="#fff"></path>
      <path id="Path_2694" data-name="Path 2694" d="M510.111,96.99h0c.026,0,.026.026,0,0Zm.026-.026h0" transform="translate(-375.506 -71.378)" fill="#fff"></path>
      <path id="Path_2695" data-name="Path 2695" d="M510.21,97.09l.026-.026h0l.026.026-.026-.026v.052Z" transform="translate(-375.579 -71.451)" fill="#fff"></path>
      <path id="Path_2696" data-name="Path 2696" d="M510.408,97.089h0l.026-.026c0,.026,0,.026-.026.026h.026c0,.026,0,.026-.026,0h0c.026.026,0,.026,0,0h0" transform="translate(-375.725 -71.451)" fill="#fff"></path>
      <path id="Path_2697" data-name="Path 2697" d="M510.606,97.189h0c0,.026.026.026,0,0h0l.026-.026c0,.026,0,.026-.026.026h.026c0,.026,0,.026-.026,0,.026.026,0,.026,0,0h0" transform="translate(-375.871 -71.524)" fill="#fff"></path>
      <path id="Path_2698" data-name="Path 2698" d="M510.731,97.361h0c-.026,0-.026.026,0,0-.026.026-.026.026,0,.026h.052c-.026,0-.026,0-.052-.026h0m-.026.026h0l.026-.026c0,.026,0,.026-.026.026h0" transform="translate(-375.944 -71.67)" fill="#fff"></path>
      <rect id="Rectangle_2391" data-name="Rectangle 2391" width="47.818" height="0.435" transform="translate(0 16.423)" fill="#fff"></rect>
      <path id="Path_2699" data-name="Path 2699" d="M115.187,34.331a7.8,7.8,0,0,0-7.8,7.8h15.629a7.83,7.83,0,0,0-7.83-7.8" transform="translate(-79.051 -25.272)" fill="#fff"></path>
      <path id="Path_2700" data-name="Path 2700" d="M10.127,70.833h3.449v1.056h-2.33v.932H13.42v1.025H11.245v1.025H13.7V75.9H10.127Z" transform="translate(-7.454 -52.142)" fill="#fff"></path>
      <path id="Path_2701" data-name="Path 2701" d="M28.677,71.816a1.128,1.128,0,0,0-.808-.342c-.311,0-.746.155-.746.528,0,.932,2.33.342,2.33,2.113A1.73,1.73,0,0,1,27.5,75.793a2.474,2.474,0,0,1-1.709-.621l.808-.87a1.164,1.164,0,0,0,.963.466c.373,0,.777-.186.777-.528,0-.932-2.361-.435-2.361-2.113A1.73,1.73,0,0,1,27.9,70.48a2.358,2.358,0,0,1,1.554.528Z" transform="translate(-18.982 -51.882)" fill="#fff"></path>
      <path id="Path_2702" data-name="Path 2702" d="M44.215,72.977h.746c.4,0,.777-.124.777-.621,0-.528-.528-.59-.963-.59h-.559ZM43.1,70.833h1.9c1.056,0,1.926.342,1.926,1.523s-.808,1.553-1.864,1.553h-.808V75.9H43.127V70.833Z" transform="translate(-31.724 -52.142)" fill="#fff"></path>
      <path id="Path_2703" data-name="Path 2703" d="M60.523,70.833h3.449v1.056h-2.33v.932h2.206v1.025H61.642v1.025H64.1V75.9H60.523Z" transform="translate(-44.553 -52.142)" fill="#fff"></path>
      <path id="Path_2704" data-name="Path 2704" d="M78.747,72.946H79.4c.4,0,.932,0,.932-.559,0-.5-.466-.59-.87-.59h-.715Zm-1.119-2.113h1.957c1.025,0,1.9.373,1.9,1.523a1.3,1.3,0,0,1-1.087,1.4L81.667,75.9H80.331l-1.056-2.02h-.559V75.9H77.6Z" transform="translate(-57.121 -52.142)" fill="#fff"></path>
      <path id="Path_2705" data-name="Path 2705" d="M96.017,72.324,95.4,73.909h1.243Zm-.435-1.491h.932L98.72,75.9H97.446l-.435-1.087H95.054L94.619,75.9H93.376Z" transform="translate(-68.737 -52.142)" fill="#fff"></path>
      <path id="Path_2706" data-name="Path 2706" d="M115.748,70.833h1.523l2.144,3.542h.031V70.833h1.119V75.9H119.1l-2.206-3.6h-.031v3.6h-1.119Z" transform="translate(-85.205 -52.142)" fill="#fff"></path>
      <path id="Path_2707" data-name="Path 2707" d="M139.54,75.9c.435,0,.9.062.9.59s-.621.683-.995.683a2.26,2.26,0,0,1-.9-.217l.186-.342a1.885,1.885,0,0,0,.559.124c.217,0,.466-.031.466-.218,0-.155-.217-.249-.373-.249a.584.584,0,0,0-.249.062l-.217-.217.435-.653h.466Zm1.212-4.164a1.123,1.123,0,0,0-.963-.4,1.626,1.626,0,0,0-.031,3.231,1.268,1.268,0,0,0,1.056-.528l.932.683a2.265,2.265,0,0,1-1.833.87,2.673,2.673,0,1,1,0-5.344,2.163,2.163,0,0,1,1.709.746Z" transform="translate(-100.981 -51.708)" fill="#fff"></path>
      <path id="Path_2708" data-name="Path 2708" d="M157.247,72.324l-.621,1.585h1.243Zm-.435-1.491h.932L159.95,75.9h-1.243l-.435-1.087h-1.989l-.435,1.087h-1.243Z" transform="translate(-113.81 -52.142)" fill="#fff"></path>
      <path id="Path_2709" data-name="Path 2709" d="M11.331,102.388h.559c.994,0,1.74-.373,1.74-1.491,0-.963-.777-1.4-1.678-1.4h-.621ZM10.244,98.5H11.86c1.553,0,2.89.653,2.89,2.455a2.469,2.469,0,0,1-2.734,2.424H10.244Z" transform="translate(-7.541 -72.511)" fill="#fff"></path>
      <path id="Path_2710" data-name="Path 2710" d="M31.457,102.166a1.477,1.477,0,0,0,1.523-1.554,1.46,1.46,0,0,0-1.523-1.553,1.554,1.554,0,0,0,0,3.107m0-4.133a2.549,2.549,0,1,1-2.61,2.548,2.43,2.43,0,0,1,2.61-2.548" transform="translate(-21.235 -72.165)" fill="#fff"></path>
      <path id="Path_2711" data-name="Path 2711" d="M56.564,99.9l.59,1.522H55.973Zm-.4-1.4-2.113,4.847h1.181l.4-1.025h1.9l.435,1.025h1.212L57.061,98.5Z" transform="translate(-39.785 -72.511)" fill="#fff"></path>
      <path id="Path_2712" data-name="Path 2712" d="M78.89,98.5l-1.15,3.169L76.622,98.5H75.006v4.847h1.057V99.623h.031l1.212,3.729h.839l1.274-3.729v3.729h1.087V98.5Z" transform="translate(-55.214 -72.512)" fill="#fff"></path>
      <path id="Path_2713" data-name="Path 2713" d="M99.9,99.9l.59,1.522H99.306Zm-.4-1.4-2.113,4.847H98.56l.4-1.025h1.9l.435,1.025h1.212L100.393,98.5Z" transform="translate(-71.683 -72.511)" fill="#fff"></path>
      <path id="Path_2714" data-name="Path 2714" d="M121.881,98.5v3.387h-.031L119.8,98.5h-1.46v4.847H119.4V99.9h.031l2.113,3.449h1.4V98.5Z" transform="translate(-87.112 -72.512)" fill="#fff"></path>
      <path id="Path_2715" data-name="Path 2715" d="M142.436,98.5v1.8h-2.082V98.5H139.3v4.847h1.057V101.27h2.082v2.082h1.056V98.5Z" transform="translate(-102.541 -72.512)" fill="#fff"></path>
      <path id="Path_2716" data-name="Path 2716" d="M159.124,96.175l-.59,1.522h1.181Zm-1.305-1.8a.971.971,0,0,1,.87-.932,1.284,1.284,0,0,1,.59.155.827.827,0,0,0,.373.093.369.369,0,0,0,.311-.249h.528c-.093.528-.311.932-.9.932a1.047,1.047,0,0,1-.528-.155,1.226,1.226,0,0,0-.435-.155c-.155,0-.249.155-.28.28h-.528Zm.87.4h.9l2.113,4.847h-1.212l-.4-1.025h-1.9l-.4,1.025h-1.181Z" transform="translate(-115.283 -68.784)" fill="#fff"></path>
      <rect id="Rectangle_2392" data-name="Rectangle 2392" width="0.746" height="4.257" transform="translate(2.455 11.172)" fill="#fff"></rect>
      <path id="Path_2717" data-name="Path 2717" d="M15.425,47.345h.684v.466a.9.9,0,0,1,.87-.528,1.018,1.018,0,0,1,1.057,1.15v1.833H17.32v-1.46c0-.311-.031-.839-.528-.839-.466,0-.653.342-.653.746V50.3h-.715Z" transform="translate(-11.355 -34.806)" fill="#fff"></path>
      <path id="Path_2718" data-name="Path 2718" d="M29.356,48.24a.627.627,0,0,0-.559-.28c-.187,0-.435.093-.435.311,0,.528,1.554.093,1.554,1.212,0,.684-.653.932-1.243.932a1.452,1.452,0,0,1-1.119-.435l.466-.435a.825.825,0,0,0,.683.342c.218,0,.466-.093.466-.342,0-.591-1.554-.124-1.554-1.212,0-.652.59-.932,1.15-.932a1.258,1.258,0,0,1,1.025.435Z" transform="translate(-20.283 -34.893)" fill="#fff"></path>
      <path id="Path_2719" data-name="Path 2719" d="M37.327,45.8v-.621h.59V44.34h.715v.839h.808V45.8h-.808v1.274c0,.279.093.466.4.466a.862.862,0,0,0,.4-.093v.621a1.764,1.764,0,0,1-.559.093c-.777,0-.932-.342-.932-1.025V45.8Z" transform="translate(-27.477 -32.64)" fill="#fff"></path>
      <path id="Path_2720" data-name="Path 2720" d="M47.224,43.618h.715v2.89h-.715Zm.342-1.4a.433.433,0,0,1,.466.435.451.451,0,0,1-.466.435.473.473,0,0,1-.466-.435.452.452,0,0,1,.466-.435" transform="translate(-34.672 -31.079)" fill="#fff"></path>
      <path id="Path_2721" data-name="Path 2721" d="M52.163,45.8v-.621h.59V44.34h.715v.839h.808V45.8h-.808v1.274c0,.279.093.466.4.466a.862.862,0,0,0,.4-.093v.621a1.764,1.764,0,0,1-.559.093c-.777,0-.932-.342-.932-1.025V45.8Z" transform="translate(-38.399 -32.64)" fill="#fff"></path>
      <path id="Path_2722" data-name="Path 2722" d="M64.9,50.235h-.684v-.466a.9.9,0,0,1-.87.528,1.018,1.018,0,0,1-1.057-1.15V47.314H63v1.46c0,.311.031.839.528.839.466,0,.653-.342.653-.746V47.283H64.9Z" transform="translate(-45.853 -34.806)" fill="#fff"></path>
      <path id="Path_2723" data-name="Path 2723" d="M74.065,45.8v-.621h.59V44.34h.715v.839h.808V45.8H75.37v1.274c0,.279.093.466.4.466a.862.862,0,0,0,.4-.093v.621a1.764,1.764,0,0,1-.559.093c-.777,0-.932-.342-.932-1.025V45.8Z" transform="translate(-54.521 -32.64)" fill="#fff"></path>
      <path id="Path_2724" data-name="Path 2724" d="M85.156,49.644a.871.871,0,1,0-.839-.87.824.824,0,0,0,.839.87m0-2.361A1.523,1.523,0,1,1,83.6,48.806a1.494,1.494,0,0,1,1.553-1.523" transform="translate(-61.542 -34.806)" fill="#fff"></path>
    </g>
  </g>
</svg>
