<?xml version="1.0" encoding="UTF-8"?>
<svg xmlns="http://www.w3.org/2000/svg" id="Group_4901" data-name="Group 4901" width="31.359" height="36.552" viewBox="0 0 31.359 36.552">
  <g id="Group_21" data-name="Group 21" transform="translate(0 0)">
    <path id="Path_243" data-name="Path 243" d="M36.287,2.5H13.509A4.3,4.3,0,0,0,9.2,6.809V34.743a4.3,4.3,0,0,0,4.309,4.309H36.249a4.3,4.3,0,0,0,4.309-4.309V6.809A4.27,4.27,0,0,0,36.287,2.5ZM37.6,27.317a1.3,1.3,0,0,1-1.308,1.308h-2.77V25.932A5.381,5.381,0,0,0,30.4,21.084l-1.5-.693a5.788,5.788,0,0,1-3.963,1.578,6.147,6.147,0,0,1-4-1.578l-1.5.693a5.3,5.3,0,0,0-3.117,4.848v2.693h-2.77a1.3,1.3,0,0,1-1.308-1.308V6.809A1.3,1.3,0,0,1,13.548,5.5H36.287A1.3,1.3,0,0,1,37.6,6.809Z" transform="translate(-9.2 -2.5)" fill="#3DA8C6"></path>
    <ellipse id="Ellipse_4" data-name="Ellipse 4" cx="4.309" cy="5.04" rx="4.309" ry="5.04" transform="translate(11.389 7.503)" fill="#3DA8C6"></ellipse>
  </g>
</svg>
