<?xml version="1.0" encoding="UTF-8"?>
<svg xmlns="http://www.w3.org/2000/svg" width="32.258" height="40.624" viewBox="0 0 32.258 40.624">
  <path id="Path_14869" data-name="Path 14869" d="M12.073,3.621A1.02,1.02,0,0,1,12.78,2h9.081a1.693,1.693,0,0,1,1.392.762l2.924,4.232L20.3,15.541Zm15.941,39A11.849,11.849,0,1,1,39.862,30.775,11.849,11.849,0,0,1,28.014,42.624Zm0-8.26,2.454,1.291a.846.846,0,0,0,1.206-.876l-.47-2.734,1.989-1.938a.846.846,0,0,0-.461-1.418l-2.746-.4L28.758,25.8a.846.846,0,0,0-1.49,0l-1.227,2.488-2.746.4a.846.846,0,0,0-.461,1.418l1.989,1.938-.47,2.734a.846.846,0,0,0,1.206.876Zm0-18.42a14.767,14.767,0,0,1,6.445,1.473l9.5-13.8A1.02,1.02,0,0,0,43.248,2H34.166a1.693,1.693,0,0,0-1.392.762l-9.64,14.007A14.777,14.777,0,0,1,28.014,15.943Z" transform="translate(-11.884 -2)" fill="#3DA8C6"></path>
</svg>
