<?xml version="1.0" encoding="UTF-8"?>
<svg xmlns="http://www.w3.org/2000/svg" width="33.497" height="28.208" viewBox="0 0 33.497 28.208">
  <path id="Path_14872" data-name="Path 14872" d="M34.822,5.758l-.212.229a2.226,2.226,0,0,1-1.64.776h0A2.217,2.217,0,0,1,31.331,6l-.212-.229A2.221,2.221,0,0,0,29.445,5h0a2.218,2.218,0,0,0-1.675.758l-.212.229a2.226,2.226,0,0,1-1.64.776h0A2.217,2.217,0,0,1,24.279,6l-.212-.229A2.221,2.221,0,0,0,22.393,5h0a2.218,2.218,0,0,0-1.675.758l-.212.229a2.226,2.226,0,0,1-1.64.776h0A2.217,2.217,0,0,1,17.227,6l-.212-.229A2.221,2.221,0,0,0,15.341,5h0a2.218,2.218,0,0,0-1.675.758l-.212.229a2.226,2.226,0,0,1-1.64.776h0A2.217,2.217,0,0,1,10.175,6l-.212-.229A2.221,2.221,0,0,0,8.289,5V6.763h0V28.8a.881.881,0,0,1-1.763,0V12.052a1.763,1.763,0,0,0-3.526,0v17.63a3.525,3.525,0,0,0,3.526,3.526H32.971A3.525,3.525,0,0,0,36.5,29.682V6.763h0V5A2.218,2.218,0,0,0,34.822,5.758ZM32.971,19.1v1.763H22.393V19.1ZM13.578,10.289h17.63v3.526H13.578ZM20.63,27.037a.882.882,0,0,1-.881.882H12.7a.882.882,0,0,1-.881-.882V19.985A.882.882,0,0,1,12.7,19.1h7.052a.882.882,0,0,1,.881.881Zm1.763-4.407H32.971v1.763H22.393Zm10.578,5.289H22.393V26.156H32.971Z" transform="translate(-3 -5)" fill="#3DA8C6"></path>
</svg>
